<svg width="16" height="16" viewBox="0 0 16 16" xmlns="http://www.w3.org/2000/svg">
<path fill-rule="evenodd" clip-rule="evenodd" d="M1 0C1.55228 0 2 0.447715 2 1V6C2 6.55228 1.55228 7 1 7C0.447715 7 0 6.55228 0 6V1C0 0.447715 0.447715 0 1 0Z" />
<path fill-rule="evenodd" clip-rule="evenodd" d="M0 6C1.15052e-09 5.44772 0.447715 5 1 5H6C6.55228 5 7 5.44772 7 6C7 6.55228 6.55228 7 6 7H1C0.447715 7 0 6.55228 0 6Z" />
<path fill-rule="evenodd" clip-rule="evenodd" d="M6 0C6.55228 0 7 0.447715 7 1V6C7 6.55228 6.55228 7 6 7C5.44772 7 5 6.55228 5 6V1C5 0.447715 5.44772 0 6 0Z" />
<path fill-rule="evenodd" clip-rule="evenodd" d="M0 1C0 0.447715 0.447715 0 1 0H6C6.55228 0 7 0.447715 7 1C7 1.55228 6.55228 2 6 2H1C0.447715 2 0 1.55228 0 1Z" />
<path fill-rule="evenodd" clip-rule="evenodd" d="M10 9C10.5523 9 11 9.44772 11 10V15C11 15.5523 10.5523 16 10 16C9.44772 16 9 15.5523 9 15V10C9 9.44772 9.44772 9 10 9Z" />
<path fill-rule="evenodd" clip-rule="evenodd" d="M9 15C9 14.4477 9.44772 14 10 14H15C15.5523 14 16 14.4477 16 15C16 15.5523 15.5523 16 15 16H10C9.44772 16 9 15.5523 9 15Z" />
<path fill-rule="evenodd" clip-rule="evenodd" d="M15 9C15.5523 9 16 9.44772 16 10V15C16 15.5523 15.5523 16 15 16C14.4477 16 14 15.5523 14 15V10C14 9.44772 14.4477 9 15 9Z" />
<path fill-rule="evenodd" clip-rule="evenodd" d="M9 10C9 9.44772 9.44772 9 10 9H15C15.5523 9 16 9.44772 16 10C16 10.5523 15.5523 11 15 11H10C9.44772 11 9 10.5523 9 10Z" />
<path fill-rule="evenodd" clip-rule="evenodd" d="M1 9C1.55228 9 2 9.44772 2 10V15C2 15.5523 1.55228 16 1 16C0.447715 16 0 15.5523 0 15V10C0 9.44772 0.447715 9 1 9Z" />
<path fill-rule="evenodd" clip-rule="evenodd" d="M0 15C1.15052e-09 14.4477 0.447715 14 1 14H6C6.55228 14 7 14.4477 7 15C7 15.5523 6.55228 16 6 16H1C0.447715 16 0 15.5523 0 15Z" />
<path fill-rule="evenodd" clip-rule="evenodd" d="M6 9C6.55228 9 7 9.44772 7 10V15C7 15.5523 6.55228 16 6 16C5.44772 16 5 15.5523 5 15V10C5 9.44772 5.44772 9 6 9Z" />
<path fill-rule="evenodd" clip-rule="evenodd" d="M0 10C0 9.44772 0.447715 9 1 9H6C6.55228 9 7 9.44772 7 10C7 10.5523 6.55228 11 6 11H1C0.447715 11 0 10.5523 0 10Z" />
<path fill-rule="evenodd" clip-rule="evenodd" d="M10 0C10.5523 0 11 0.447715 11 1V6C11 6.55228 10.5523 7 10 7C9.44772 7 9 6.55228 9 6V1C9 0.447715 9.44772 0 10 0Z" />
<path fill-rule="evenodd" clip-rule="evenodd" d="M9 6C9 5.44772 9.44772 5 10 5H15C15.5523 5 16 5.44772 16 6C16 6.55228 15.5523 7 15 7H10C9.44772 7 9 6.55228 9 6Z" />
<path fill-rule="evenodd" clip-rule="evenodd" d="M15 0C15.5523 0 16 0.447715 16 1V6C16 6.55228 15.5523 7 15 7C14.4477 7 14 6.55228 14 6V1C14 0.447715 14.4477 0 15 0Z" />
<path fill-rule="evenodd" clip-rule="evenodd" d="M9 1C9 0.447715 9.44772 0 10 0H15C15.5523 0 16 0.447715 16 1C16 1.55228 15.5523 2 15 2H10C9.44772 2 9 1.55228 9 1Z" />
</svg>
