<svg width="16" height="16" viewBox="0 0 16 16" xmlns="http://www.w3.org/2000/svg">
<path fill-rule="evenodd" clip-rule="evenodd" d="M0 1C1.5398e-10 0.447715 0.447715 0 1 0L15 1.38874e-09C15.5523 1.44353e-09 16 0.447715 16 1C16 1.55228 15.5523 2 15 2H1C0.447715 2 0 1.55228 0 1Z" />
<path fill-rule="evenodd" clip-rule="evenodd" d="M1 0C1.55228 0 2 0.447715 2 1V5.99977L0 6L0 1C1.5398e-10 0.447715 0.447715 0 1 0Z" />
<path fill-rule="evenodd" clip-rule="evenodd" d="M0 6C-3.6175e-09 5.44772 0.447715 5 1 5H14.9993C15.5516 5 16 5.44772 16 6C16 6.55228 15.5523 7 15 7H1C0.447715 7 3.6175e-09 6.55228 0 6Z" />
<path fill-rule="evenodd" clip-rule="evenodd" d="M15 1.38874e-09C15.5523 1.44353e-09 16 0.447715 16 1V5.97914C16 6.53142 15.5523 6.97914 15 6.97914C14.4477 6.97914 14 6.53142 14 5.97914V1C14 0.447715 14.4477 1.38874e-09 15 1.38874e-09Z" />
<path fill-rule="evenodd" clip-rule="evenodd" d="M0 10C1.5398e-10 9.44772 0.447715 9 1 9H15C15.5523 9 16 9.44772 16 10C16 10.5523 15.5523 11 15 11H1C0.447715 11 0 10.5523 0 10Z" />
<path fill-rule="evenodd" clip-rule="evenodd" d="M1 9C1.55228 9 2 9.44772 2 10V14.9998L1.98392e-10 15L0 10C1.5398e-10 9.44772 0.447715 9 1 9Z" />
<path fill-rule="evenodd" clip-rule="evenodd" d="M1.98392e-10 15C-3.41911e-09 14.4477 0.447715 14 1 14H14.9993C15.5516 14 16 14.4477 16 15C16 15.5523 15.5523 16 15 16H1C0.447715 16 3.81589e-09 15.5523 1.98392e-10 15Z" />
<path fill-rule="evenodd" clip-rule="evenodd" d="M15 9C15.5523 9 16 9.44772 16 10V14.9791C16 15.5314 15.5523 15.9791 15 15.9791C14.4477 15.9791 14 15.5314 14 14.9791V10C14 9.44772 14.4477 9 15 9Z" />
</svg>
