<?xml version="1.0" encoding="UTF-8"?>
<!DOCTYPE svg PUBLIC "-//W3C//DTD SVG 1.1//EN" "http://www.w3.org/Graphics/SVG/1.1/DTD/svg11.dtd">
<svg xmlns="http://www.w3.org/2000/svg" version="1.1" width="360px" height="376px" style="shape-rendering:geometricPrecision; text-rendering:geometricPrecision; image-rendering:optimizeQuality; fill-rule:evenodd; clip-rule:evenodd" xmlns:xlink="http://www.w3.org/1999/xlink">
<g><path style="opacity:1" fill="#96ad9f" d="M -0.5,-0.5 C 32.8333,-0.5 66.1667,-0.5 99.5,-0.5C 94.3307,2.46905 88.9974,5.30238 83.5,8C 76.6035,14.3096 71.6035,21.8096 68.5,30.5C 66.2582,24.0839 62.5915,18.5839 57.5,14C 53.7381,11.5298 49.7381,11.0298 45.5,12.5C 45.6236,13.1067 45.9569,13.44 46.5,13.5C 46.5,13.8333 46.5,14.1667 46.5,14.5C 45.9704,18.8427 45.9704,23.1761 46.5,27.5C 48.6982,34.9919 50.1982,42.6586 51,50.5C 51.3333,51.1667 51.6667,51.8333 52,52.5C 52.3988,52.2716 52.5654,51.9382 52.5,51.5C 53.4511,52.9187 53.7845,54.5853 53.5,56.5C 53.1667,57.1667 52.8333,57.8333 52.5,58.5C 50.7136,66.8355 48.2136,75.1688 45,83.5C 44.5045,85.4727 44.3379,87.4727 44.5,89.5C 40.5044,91.6591 38.3378,94.9924 38,99.5C 31.1006,98.1914 25.2672,100.191 20.5,105.5C 19.8444,106.278 19.0111,106.944 18,107.5C 14.4182,106.178 11.5849,106.178 9.5,107.5C 9.15829,108.338 8.49162,108.672 7.5,108.5C 6.74943,107.427 5.74943,107.26 4.5,108C 3.16667,109.333 1.83333,110.667 0.5,112C 0.728446,112.399 1.06178,112.565 1.5,112.5C 1.20414,114.403 0.53747,116.07 -0.5,117.5C -0.5,78.1667 -0.5,38.8333 -0.5,-0.5 Z"/></g>
<g><path style="opacity:1" fill="#2b2b2b" d="M 99.5,-0.5 C 151.167,-0.5 202.833,-0.5 254.5,-0.5C 264.764,7.64714 275.097,15.8138 285.5,24C 293,33.1969 300.834,42.0302 309,50.5C 313.174,56.8455 316.841,63.5122 320,70.5C 326.517,86.5347 332.184,102.868 337,119.5C 338.938,120.86 340.604,120.527 342,118.5C 342.667,117.167 343.333,115.833 344,114.5C 344.175,110.789 344.675,107.122 345.5,103.5C 346.086,103.709 346.586,104.043 347,104.5C 348.457,108.741 348.791,113.074 348,117.5C 345.845,123.143 342.679,128.143 338.5,132.5C 339.309,134.071 339.643,135.738 339.5,137.5C 332.393,114.132 322.559,91.4655 310,69.5C 300.724,55.2247 291.057,41.2247 281,27.5C 272.389,15.1891 260.889,7.35574 246.5,4C 261.323,9.34168 272.99,18.5084 281.5,31.5C 280.522,31.811 279.855,32.4777 279.5,33.5C 281.139,34.916 281.973,36.5826 282,38.5C 279.715,36.0934 277.549,33.5934 275.5,31C 273.199,31.1872 272.865,32.3539 274.5,34.5C 272.514,37.8601 272.514,41.3601 274.5,45C 273.044,45.4226 272.544,46.2559 273,47.5C 274.167,48.6667 275.333,49.8333 276.5,51C 281.495,52.8847 286.661,54.3847 292,55.5C 292.945,55.0946 293.612,54.428 294,53.5C 294.953,55.3731 296.12,55.7065 297.5,54.5C 312.331,74.3221 323.664,96.1554 331.5,120C 331.355,120.772 331.022,121.439 330.5,122C 326.459,122.827 322.459,122.66 318.5,121.5C 316.61,116.053 314.443,110.72 312,105.5C 311.571,107.669 312.071,109.669 313.5,111.5C 313.333,111.833 313.167,112.167 313,112.5C 312,111.5 311,110.5 310,109.5C 310.72,112.265 312.387,114.599 315,116.5C 316.009,118.025 316.509,119.692 316.5,121.5C 311.19,120.164 306.19,118.33 301.5,116C 306.123,120.145 311.457,122.979 317.5,124.5C 318.802,127.708 319.469,131.041 319.5,134.5C 316.059,134.699 312.726,134.199 309.5,133C 304.5,130.5 299.5,128 294.5,125.5C 293.537,125.97 293.537,126.637 294.5,127.5C 293.539,129.265 293.205,131.265 293.5,133.5C 292.834,130.311 292.167,126.977 291.5,123.5C 290.146,121.816 288.479,121.316 286.5,122C 287.973,122.71 288.64,123.876 288.5,125.5C 286.784,125.371 285.117,125.038 283.5,124.5C 283.047,123.542 282.381,122.708 281.5,122C 285.49,119.525 288.157,116.025 289.5,111.5C 289.167,110.833 288.833,110.167 288.5,109.5C 286.157,112.207 283.823,114.874 281.5,117.5C 277.487,115.494 273.82,112.994 270.5,110C 270.833,109.667 271.167,109.333 271.5,109C 263.999,106.583 256.999,103.083 250.5,98.5C 249.707,99.3554 250.04,100.189 251.5,101C 254.167,102.667 256.833,104.333 259.5,106C 258.263,106.232 257.263,106.732 256.5,107.5C 253.135,107.046 249.802,106.38 246.5,105.5C 243.952,105.265 242.286,106.265 241.5,108.5C 240.883,108.611 240.383,108.944 240,109.5C 238.382,107.552 237.382,104.886 237,101.5C 236.329,100.748 235.496,100.414 234.5,100.5C 229.363,96.8935 224.03,93.3935 218.5,90C 213.921,85.9262 209.921,81.4262 206.5,76.5C 209.225,77.713 211.559,79.5464 213.5,82C 214.833,82.6667 216.167,82.6667 217.5,82C 206.042,67.0329 192.042,55.1996 175.5,46.5C 172.3,42.4334 168.3,39.4334 163.5,37.5C 155.754,29.8111 146.42,26.9778 135.5,29C 132.137,32.4794 130.803,36.6461 131.5,41.5C 131.57,46.7426 132.403,51.7426 134,56.5C 131.528,54.7015 129.861,52.3682 129,49.5C 128.8,42.1174 128.3,34.7841 127.5,27.5C 128.801,24.5729 129.801,21.5729 130.5,18.5C 125.893,26.1385 124.393,34.4718 126,43.5C 126.907,52.7566 131.074,60.0899 138.5,65.5C 132.565,71.955 129.732,79.6217 130,88.5C 129.334,95.4883 128.834,102.488 128.5,109.5C 128.375,114.488 129.042,119.321 130.5,124C 124.861,124.823 119.528,126.49 114.5,129C 115.793,129.49 117.127,129.657 118.5,129.5C 118.389,130.117 118.056,130.617 117.5,131C 113.56,132.015 109.56,132.515 105.5,132.5C 99.3271,132.962 94.1604,130.628 90,125.5C 89.3333,110.833 89.3333,96.1667 90,81.5C 91.0277,79.1563 91.6943,76.8229 92,74.5C 90.4728,76.221 89.4728,78.221 89,80.5C 87.0615,92.0933 85.7282,103.76 85,115.5C 83.1891,111.024 82.1891,106.357 82,101.5C 81.6667,102.5 81.3333,103.5 81,104.5C 80.7216,103.584 80.2216,102.918 79.5,102.5C 78.8333,98.1667 78.1667,93.8333 77.5,89.5C 77.5557,84.2688 76.889,79.2688 75.5,74.5C 75.6468,66.2115 73.6468,58.5449 69.5,51.5C 69.5,50.1667 69.5,48.8333 69.5,47.5C 70.29,48.6085 70.79,49.9419 71,51.5C 71.7062,44.2822 70.8729,37.2822 68.5,30.5C 71.6035,21.8096 76.6035,14.3096 83.5,8C 88.9974,5.30238 94.3307,2.46905 99.5,-0.5 Z"/></g>
<g><path style="opacity:1" fill="#96ad9f" d="M 254.5,-0.5 C 289.5,-0.5 324.5,-0.5 359.5,-0.5C 359.5,63.5 359.5,127.5 359.5,191.5C 351.009,182.077 345.342,171.077 342.5,158.5C 342.066,153.332 341.4,148.332 340.5,143.5C 340.167,141.5 339.833,139.5 339.5,137.5C 339.643,135.738 339.309,134.071 338.5,132.5C 342.679,128.143 345.845,123.143 348,117.5C 348.791,113.074 348.457,108.741 347,104.5C 346.586,104.043 346.086,103.709 345.5,103.5C 344.675,107.122 344.175,110.789 344,114.5C 343.333,115.833 342.667,117.167 342,118.5C 340.604,120.527 338.938,120.86 337,119.5C 332.184,102.868 326.517,86.5347 320,70.5C 316.841,63.5122 313.174,56.8455 309,50.5C 300.834,42.0302 293,33.1969 285.5,24C 275.097,15.8138 264.764,7.64714 254.5,-0.5 Z"/></g>
<g><path style="opacity:1" fill="#171717" d="M 130.5,18.5 C 131.944,14.4556 134.278,10.9556 137.5,8C 126.077,8.4254 120.41,14.4254 120.5,26C 120.305,28.3523 120.972,30.3523 122.5,32C 121.736,34.0693 121.236,36.236 121,38.5C 114.272,23.6206 118.105,12.7872 132.5,6C 131.289,5.10723 131.289,4.2739 132.5,3.5C 134.135,4.33022 135.802,4.49688 137.5,4C 136.672,4.91471 135.672,5.58138 134.5,6C 135.167,6.16667 135.833,6.33333 136.5,6.5C 138.447,5.72298 140.28,4.72298 142,3.5C 142.5,3.66667 143,3.83333 143.5,4C 140.013,9.13948 137.18,14.6395 135,20.5C 134.805,18.7928 134.805,17.1261 135,15.5C 134.333,16.8333 133.667,16.8333 133,15.5C 132.623,16.9423 131.79,17.9423 130.5,18.5 Z"/></g>
<g><path style="opacity:1" fill="#f5d6c3" d="M 69.5,47.5 C 69.5,48.8333 69.5,50.1667 69.5,51.5C 67.4,54.1041 65.0666,56.6041 62.5,59C 60.1902,59.4966 57.8568,59.6633 55.5,59.5C 54.8333,58.5 54.1667,57.5 53.5,56.5C 53.7845,54.5853 53.4511,52.9187 52.5,51.5C 51.2612,38.9202 49.2612,26.5869 46.5,14.5C 46.5,14.1667 46.5,13.8333 46.5,13.5C 49.1066,12.1976 51.7732,12.3643 54.5,14C 65.0919,22.6823 70.0919,33.849 69.5,47.5 Z"/></g>
<g><path style="opacity:1" fill="#161616" d="M 102.5,10.5 C 104.893,11.3527 106.226,13.0194 106.5,15.5C 103.111,15.3679 99.7772,15.2012 96.5,15C 97.1667,15.3333 97.8333,15.6667 98.5,16C 94.9687,18.501 91.802,21.3343 89,24.5C 84.8061,31.5545 81.1394,38.8878 78,46.5C 77.6667,52.1667 77.3333,57.8333 77,63.5C 75.232,52.7096 75.8986,42.0429 79,31.5C 79.4186,30.3279 80.0853,29.3279 81,28.5C 80.6943,30.8229 80.0277,33.1563 79,35.5C 78.3333,37.1667 78.3333,38.8333 79,40.5C 81.3875,34.057 84.5541,28.057 88.5,22.5C 88.1543,21.3044 87.6543,21.3044 87,22.5C 86.3333,21.8333 86.3333,21.1667 87,20.5C 91.6043,15.9687 96.771,12.6353 102.5,10.5 Z"/></g>
<g><path style="opacity:1" fill="#292e2a" d="M 46.5,14.5 C 49.2612,26.5869 51.2612,38.9202 52.5,51.5C 52.5654,51.9382 52.3988,52.2716 52,52.5C 51.6667,51.8333 51.3333,51.1667 51,50.5C 50.1982,42.6586 48.6982,34.9919 46.5,27.5C 45.9704,23.1761 45.9704,18.8427 46.5,14.5 Z"/></g>
<g><path style="opacity:1" fill="#292929" d="M 163.5,37.5 C 164.29,38.7942 165.29,39.9609 166.5,41C 163.98,42.7632 161.647,44.7632 159.5,47C 161.899,46.0166 164.399,44.8499 167,43.5C 169.799,44.237 169.966,45.0703 167.5,46C 169.67,47.5862 172.004,48.9196 174.5,50C 169.69,50.4913 165.356,52.1579 161.5,55C 164.679,53.9331 168.012,53.0998 171.5,52.5C 166.97,54.5242 162.636,57.0242 158.5,60C 157.257,62.4901 156.09,64.9901 155,67.5C 155.536,65.553 155.202,63.553 154,61.5C 152.961,62.2438 152.461,63.2438 152.5,64.5C 150.718,61.3685 150.218,58.0352 151,54.5C 149.957,56.8329 149.124,59.1663 148.5,61.5C 147.495,65.1102 147.329,69.4436 148,74.5C 146.956,73.3774 146.29,72.0441 146,70.5C 144.643,73.8981 142.81,76.8981 140.5,79.5C 140.565,79.0618 140.399,78.7284 140,78.5C 137.223,81.718 135.223,85.3847 134,89.5C 134.425,100.817 134.425,112.151 134,123.5C 133.586,123.957 133.086,124.291 132.5,124.5C 131.692,122.577 131.192,120.577 131,118.5C 130.461,103.648 131.795,88.9813 135,74.5C 136.271,71.5674 137.938,68.9007 140,66.5C 141.017,69.028 142.184,69.028 143.5,66.5C 144.799,67.09 145.632,68.09 146,69.5C 146.92,66.6917 146.087,64.5251 143.5,63C 142.216,62.3162 141.049,62.4829 140,63.5C 133.268,53.5247 131.601,42.858 135,31.5C 139.748,30.3651 144.581,30.1985 149.5,31C 154.339,32.9213 159.006,35.088 163.5,37.5 Z"/></g>
<g><path style="opacity:1" fill="#0e0e0d" d="M 68.5,30.5 C 70.8729,37.2822 71.7062,44.2822 71,51.5C 70.79,49.9419 70.29,48.6085 69.5,47.5C 70.0919,33.849 65.0919,22.6823 54.5,14C 51.7732,12.3643 49.1066,12.1976 46.5,13.5C 45.9569,13.44 45.6236,13.1067 45.5,12.5C 49.7381,11.0298 53.7381,11.5298 57.5,14C 62.5915,18.5839 66.2582,24.0839 68.5,30.5 Z"/></g>
<g><path style="opacity:1" fill="#8fa597" d="M 281.5,31.5 C 287.067,38.9548 292.401,46.6214 297.5,54.5C 296.12,55.7065 294.953,55.3731 294,53.5C 293.612,54.428 292.945,55.0946 292,55.5C 286.661,54.3847 281.495,52.8847 276.5,51C 275.333,49.8333 274.167,48.6667 273,47.5C 272.544,46.2559 273.044,45.4226 274.5,45C 272.514,41.3601 272.514,37.8601 274.5,34.5C 272.865,32.3539 273.199,31.1872 275.5,31C 277.549,33.5934 279.715,36.0934 282,38.5C 281.973,36.5826 281.139,34.916 279.5,33.5C 279.855,32.4777 280.522,31.811 281.5,31.5 Z"/></g>
<g><path style="opacity:1" fill="#f5c6b0" d="M 69.5,51.5 C 73.6468,58.5449 75.6468,66.2115 75.5,74.5C 75.4443,79.7312 76.111,84.7312 77.5,89.5C 78.1667,93.8333 78.8333,98.1667 79.5,102.5C 81.473,112.381 84.973,121.714 90,130.5C 91.214,132.049 92.714,133.215 94.5,134C 90.1523,134.465 85.819,134.965 81.5,135.5C 75.8542,136.088 75.5208,136.754 80.5,137.5C 87.1566,136.783 93.8233,136.116 100.5,135.5C 100.238,137.564 99.0714,138.897 97,139.5C 94.9751,144.371 95.4751,149.038 98.5,153.5C 98.1373,154.183 97.8039,154.85 97.5,155.5C 92.0918,153.966 86.7584,152.133 81.5,150C 80.3333,149.5 79.5,148.667 79,147.5C 78.2753,148.059 77.4419,148.392 76.5,148.5C 72.5265,147.227 68.5265,146.06 64.5,145C 65.056,144.617 65.3893,144.117 65.5,143.5C 66.6484,139.019 66.8151,134.352 66,129.5C 64.6752,123.218 63.6752,116.885 63,110.5C 62.6272,106.715 61.4605,103.215 59.5,100C 60.0219,99.4387 60.3552,98.772 60.5,98C 59.2135,95.9288 58.0468,93.7621 57,91.5C 56.5721,80.8252 56.0721,70.1586 55.5,59.5C 57.8568,59.6633 60.1902,59.4966 62.5,59C 65.0666,56.6041 67.4,54.1041 69.5,51.5 Z"/></g>
<g><path style="opacity:1" fill="#fce9d1" d="M 171.5,52.5 C 175.544,51.9579 179.211,52.7912 182.5,55C 190.802,61.9589 198.802,69.1256 206.5,76.5C 209.921,81.4262 213.921,85.9262 218.5,90C 224.03,93.3935 229.363,96.8935 234.5,100.5C 235.037,103.643 236.037,106.643 237.5,109.5C 238.325,110.386 239.325,110.719 240.5,110.5C 240.371,112.216 240.038,113.883 239.5,115.5C 239.5,116.167 239.5,116.833 239.5,117.5C 237.598,125.974 237.265,134.641 238.5,143.5C 239.182,144.243 239.849,144.909 240.5,145.5C 240.783,146.289 241.283,146.956 242,147.5C 242.05,145.256 242.883,143.589 244.5,142.5C 245.167,143.833 245.833,143.833 246.5,142.5C 247.488,143.795 248.488,145.128 249.5,146.5C 247.777,148.78 247.111,151.447 247.5,154.5C 246.167,154.5 244.833,154.5 243.5,154.5C 242.391,154.443 241.391,154.11 240.5,153.5C 223.248,147.245 216.081,153.245 219,171.5C 219.676,177.697 222.509,182.531 227.5,186C 228.833,186.667 230.167,186.667 231.5,186C 234.977,184.2 238.644,182.867 242.5,182C 244.333,181.5 245.5,180.333 246,178.5C 246.494,180.134 246.66,181.801 246.5,183.5C 243.896,186.366 242.729,189.699 243,193.5C 243.473,191.221 244.473,189.221 246,187.5C 246.651,189.235 246.485,190.902 245.5,192.5C 245.846,193.696 246.346,193.696 247,192.5C 247.902,190.073 248.736,187.74 249.5,185.5C 250.372,181.462 250.372,177.462 249.5,173.5C 252.595,176.692 254.928,180.359 256.5,184.5C 264.259,191.16 272.426,191.827 281,186.5C 282.808,188.396 284.975,188.896 287.5,188C 289.609,186.859 291.442,185.359 293,183.5C 293.333,181.167 293.667,178.833 294,176.5C 294.494,178.134 294.66,179.801 294.5,181.5C 294.217,189.851 292.383,197.851 289,205.5C 285.73,211.04 282.73,216.707 280,222.5C 273.591,230.314 267.925,238.647 263,247.5C 259.861,249.15 256.694,250.483 253.5,251.5C 229.003,252.585 204.67,250.752 180.5,246C 172.599,243.224 165.932,238.724 160.5,232.5C 160.5,230.5 160.5,228.5 160.5,226.5C 165.193,230.312 170.193,230.479 175.5,227C 179.5,226.667 183.5,226.333 187.5,226C 189.116,225.385 190.449,224.385 191.5,223C 196.193,222.092 200.86,221.092 205.5,220C 207.774,217.656 208.941,214.822 209,211.5C 214.431,206.635 217.764,200.635 219,193.5C 221.045,185.503 219.212,178.669 213.5,173C 209.951,171.627 206.618,169.96 203.5,168C 200.1,168.207 196.766,168.041 193.5,167.5C 192.833,167.5 192.167,167.5 191.5,167.5C 190.828,166.733 189.995,166.066 189,165.5C 184.904,168.862 180.57,171.862 176,174.5C 178.173,169.126 179.673,163.46 180.5,157.5C 185.167,157.5 189.833,157.5 194.5,157.5C 195.804,156.013 196.97,154.346 198,152.5C 198.667,148.167 198.667,143.833 198,139.5C 194.797,133.094 191.63,126.76 188.5,120.5C 188.5,119.833 188.833,119.5 189.5,119.5C 190.237,121.305 191.237,122.971 192.5,124.5C 193.298,124.043 193.631,123.376 193.5,122.5C 195.496,124.917 196.496,124.25 196.5,120.5C 197.117,120.389 197.617,120.056 198,119.5C 199.116,115.712 198.45,112.378 196,109.5C 195.601,109.728 195.435,110.062 195.5,110.5C 193.952,110.821 193.285,111.821 193.5,113.5C 191.468,112.439 190.134,110.772 189.5,108.5C 188.614,109.325 188.281,110.325 188.5,111.5C 187.167,111.5 185.833,111.5 184.5,111.5C 184.062,111.565 183.728,111.399 183.5,111C 184.167,110.667 184.833,110.333 185.5,110C 182.833,109.333 180.167,109.333 177.5,110C 165.285,113.35 153.285,117.184 141.5,121.5C 140.784,116.936 140.117,112.269 139.5,107.5C 139.5,104.167 139.5,100.833 139.5,97.5C 139.5,92.5 139.5,87.5 139.5,82.5C 139.557,81.391 139.89,80.391 140.5,79.5C 142.81,76.8981 144.643,73.8981 146,70.5C 146.29,72.0441 146.956,73.3774 148,74.5C 147.329,69.4436 147.495,65.1102 148.5,61.5C 148.707,64.6343 150.04,65.6343 152.5,64.5C 152.461,63.2438 152.961,62.2438 154,61.5C 155.202,63.553 155.536,65.553 155,67.5C 156.09,64.9901 157.257,62.4901 158.5,60C 162.636,57.0242 166.97,54.5242 171.5,52.5 Z"/></g>
<g><path style="opacity:1" fill="#1c1d1c" d="M 163.5,37.5 C 168.3,39.4334 172.3,42.4334 175.5,46.5C 192.042,55.1996 206.042,67.0329 217.5,82C 216.167,82.6667 214.833,82.6667 213.5,82C 211.559,79.5464 209.225,77.713 206.5,76.5C 198.802,69.1256 190.802,61.9589 182.5,55C 179.211,52.7912 175.544,51.9579 171.5,52.5C 168.012,53.0998 164.679,53.9331 161.5,55C 165.356,52.1579 169.69,50.4913 174.5,50C 172.004,48.9196 169.67,47.5862 167.5,46C 169.966,45.0703 169.799,44.237 167,43.5C 164.399,44.8499 161.899,46.0166 159.5,47C 161.647,44.7632 163.98,42.7632 166.5,41C 165.29,39.9609 164.29,38.7942 163.5,37.5 Z"/></g>
<g><path style="opacity:1" fill="#8fa497" d="M 261.5,52.5 C 266.918,54.3942 271.418,57.7276 275,62.5C 275.667,63.1667 275.667,63.8333 275,64.5C 268.18,68.3433 263.013,66.8433 259.5,60C 260.871,57.6813 261.538,55.1813 261.5,52.5 Z"/></g>
<g><path style="opacity:1" fill="#827a70" d="M 152.5,64.5 C 150.04,65.6343 148.707,64.6343 148.5,61.5C 149.124,59.1663 149.957,56.8329 151,54.5C 150.218,58.0352 150.718,61.3685 152.5,64.5 Z"/></g>
<g><path style="opacity:1" fill="#2f2f2f" d="M 52.5,58.5 C 52.9717,68.5207 53.6384,78.5207 54.5,88.5C 51.0613,88.2529 47.728,88.5863 44.5,89.5C 44.3379,87.4727 44.5045,85.4727 45,83.5C 48.2136,75.1688 50.7136,66.8355 52.5,58.5 Z"/></g>
<g><path style="opacity:1" fill="#9a887c" d="M 75.5,74.5 C 76.889,79.2688 77.5557,84.2688 77.5,89.5C 76.111,84.7312 75.4443,79.7312 75.5,74.5 Z"/></g>
<g><path style="opacity:1" fill="#272727" d="M 139.5,82.5 C 139.5,87.5 139.5,92.5 139.5,97.5C 137.822,102.568 137.156,107.902 137.5,113.5C 137.19,116.713 137.523,119.713 138.5,122.5C 137.791,123.404 136.791,123.737 135.5,123.5C 135.333,111.495 135.5,99.4954 136,87.5C 136.697,85.4156 137.864,83.7489 139.5,82.5 Z"/></g>
<g><path style="opacity:1" fill="#f6d5c3" d="M 62.5,124.5 C 62.6602,126.199 62.4935,127.866 62,129.5C 59.3333,126.833 56.6667,126.833 54,129.5C 53.8171,132.365 53.3171,135.031 52.5,137.5C 48.6627,126.513 44.6627,115.513 40.5,104.5C 40.9116,100.346 41.9116,96.3464 43.5,92.5C 46.3166,90.5306 49.3166,90.1973 52.5,91.5C 57.863,101.919 61.1963,112.919 62.5,124.5 Z"/></g>
<g><path style="opacity:1" fill="#f6d6c3" d="M 37.5,101.5 C 37.9617,103.757 38.9617,105.757 40.5,107.5C 40.1667,108.167 39.8333,108.833 39.5,109.5C 43.9185,120.175 47.2518,131.175 49.5,142.5C 47.4599,142.564 45.1266,142.731 42.5,143C 41.2062,145.087 40.0395,147.254 39,149.5C 36.1689,143.838 33.3356,138.171 30.5,132.5C 28.0048,126.97 25.3381,121.637 22.5,116.5C 21.6561,112.901 21.3227,109.234 21.5,105.5C 26.2313,101.473 31.5646,100.14 37.5,101.5 Z"/></g>
<g><path style="opacity:1" fill="#454039" d="M 206.5,108.5 C 204.727,107.686 204.227,106.352 205,104.5C 205.791,105.745 206.291,107.078 206.5,108.5 Z"/></g>
<g><path style="opacity:1" fill="#f4d1bd" d="M 256.5,107.5 C 265.782,110.629 265.782,112.796 256.5,114C 257.654,114.914 257.487,115.747 256,116.5C 255.026,114.122 254.359,114.456 254,117.5C 253.282,116.549 252.449,116.383 251.5,117C 252.774,117.977 252.774,118.811 251.5,119.5C 250.417,119.539 249.417,119.873 248.5,120.5C 247.796,117.795 246.129,116.129 243.5,115.5C 244.01,112.612 243.344,110.279 241.5,108.5C 242.286,106.265 243.952,105.265 246.5,105.5C 249.802,106.38 253.135,107.046 256.5,107.5 Z"/></g>
<g><path style="opacity:1" fill="#a89c8c" d="M 234.5,100.5 C 235.496,100.414 236.329,100.748 237,101.5C 237.382,104.886 238.382,107.552 240,109.5C 240.383,108.944 240.883,108.611 241.5,108.5C 242.823,111.281 242.656,113.947 241,116.5C 240.617,115.944 240.117,115.611 239.5,115.5C 240.038,113.883 240.371,112.216 240.5,110.5C 239.325,110.719 238.325,110.386 237.5,109.5C 236.037,106.643 235.037,103.643 234.5,100.5 Z"/></g>
<g><path style="opacity:1" fill="#1a1716" d="M 53.5,56.5 C 54.1667,57.5 54.8333,58.5 55.5,59.5C 56.0721,70.1586 56.5721,80.8252 57,91.5C 58.0468,93.7621 59.2135,95.9288 60.5,98C 60.3552,98.772 60.0219,99.4387 59.5,100C 61.4605,103.215 62.6272,106.715 63,110.5C 63.6752,116.885 64.6752,123.218 66,129.5C 66.8151,134.352 66.6484,139.019 65.5,143.5C 64.7742,137.13 63.7742,130.796 62.5,124.5C 61.1963,112.919 57.863,101.919 52.5,91.5C 49.3166,90.1973 46.3166,90.5306 43.5,92.5C 41.2485,95.3376 39.2485,98.3376 37.5,101.5C 31.5646,100.14 26.2313,101.473 21.5,105.5C 21.1667,105.5 20.8333,105.5 20.5,105.5C 25.2672,100.191 31.1006,98.1914 38,99.5C 38.3378,94.9924 40.5044,91.6591 44.5,89.5C 47.728,88.5863 51.0613,88.2529 54.5,88.5C 53.6384,78.5207 52.9717,68.5207 52.5,58.5C 52.8333,57.8333 53.1667,57.1667 53.5,56.5 Z"/></g>
<g><path style="opacity:1" fill="#6c5b53" d="M 43.5,92.5 C 41.9116,96.3464 40.9116,100.346 40.5,104.5C 39.7281,103.306 38.7281,102.306 37.5,101.5C 39.2485,98.3376 41.2485,95.3376 43.5,92.5 Z"/></g>
<g><path style="opacity:1" fill="#f6d4c1" d="M 9.5,107.5 C 11.604,107.201 13.604,107.534 15.5,108.5C 17.8848,111.212 20.2181,113.878 22.5,116.5C 22.3379,118.527 22.5045,120.527 23,122.5C 25.0383,125.243 26.5383,128.243 27.5,131.5C 27.6646,133.827 28.3313,135.993 29.5,138C 29.2716,138.399 28.9382,138.565 28.5,138.5C 26.1432,138.337 23.8098,138.503 21.5,139C 20.729,141.44 20.5624,143.94 21,146.5C 20.2917,145.619 19.4584,144.953 18.5,144.5C 18.5,143.833 18.1667,143.5 17.5,143.5C 14.6547,138.473 11.3214,133.806 7.5,129.5C 7.44001,130.043 7.10667,130.376 6.5,130.5C 4.92464,129.544 3.25797,128.877 1.5,128.5C 0.833333,128.833 0.166667,129.167 -0.5,129.5C -0.5,125.5 -0.5,121.5 -0.5,117.5C 0.53747,116.07 1.20414,114.403 1.5,112.5C 3.24595,110.748 5.24595,109.415 7.5,108.5C 8.49162,108.672 9.15829,108.338 9.5,107.5 Z"/></g>
<g><path style="opacity:1" fill="#4a3e38" d="M 20.5,105.5 C 20.8333,105.5 21.1667,105.5 21.5,105.5C 21.3227,109.234 21.6561,112.901 22.5,116.5C 20.2181,113.878 17.8848,111.212 15.5,108.5C 13.604,107.534 11.604,107.201 9.5,107.5C 11.5849,106.178 14.4182,106.178 18,107.5C 19.0111,106.944 19.8444,106.278 20.5,105.5 Z"/></g>
<g><path style="opacity:1" fill="#c2b4a2" d="M 139.5,107.5 C 140.117,112.269 140.784,116.936 141.5,121.5C 140.791,122.404 139.791,122.737 138.5,122.5C 137.523,119.713 137.19,116.713 137.5,113.5C 138.167,111.5 138.833,109.5 139.5,107.5 Z"/></g>
<g><path style="opacity:1" fill="#0f0e0d" d="M 130.5,18.5 C 129.801,21.5729 128.801,24.5729 127.5,27.5C 128.3,34.7841 128.8,42.1174 129,49.5C 129.861,52.3682 131.528,54.7015 134,56.5C 132.403,51.7426 131.57,46.7426 131.5,41.5C 130.803,36.6461 132.137,32.4794 135.5,29C 146.42,26.9778 155.754,29.8111 163.5,37.5C 159.006,35.088 154.339,32.9213 149.5,31C 144.581,30.1985 139.748,30.3651 135,31.5C 131.601,42.858 133.268,53.5247 140,63.5C 141.049,62.4829 142.216,62.3162 143.5,63C 146.087,64.5251 146.92,66.6917 146,69.5C 145.632,68.09 144.799,67.09 143.5,66.5C 142.184,69.028 141.017,69.028 140,66.5C 137.938,68.9007 136.271,71.5674 135,74.5C 131.795,88.9813 130.461,103.648 131,118.5C 131.192,120.577 131.692,122.577 132.5,124.5C 133.086,124.291 133.586,123.957 134,123.5C 134.425,112.151 134.425,100.817 134,89.5C 135.223,85.3847 137.223,81.718 140,78.5C 140.399,78.7284 140.565,79.0618 140.5,79.5C 139.89,80.391 139.557,81.391 139.5,82.5C 137.864,83.7489 136.697,85.4156 136,87.5C 135.5,99.4954 135.333,111.495 135.5,123.5C 136.791,123.737 137.791,123.404 138.5,122.5C 139.791,122.737 140.791,122.404 141.5,121.5C 153.285,117.184 165.285,113.35 177.5,110C 180.167,109.333 182.833,109.333 185.5,110C 184.833,110.333 184.167,110.667 183.5,111C 183.728,111.399 184.062,111.565 184.5,111.5C 186.688,114.065 187.688,117.065 187.5,120.5C 187.5,121.833 187.5,123.167 187.5,124.5C 183.858,125.08 180.191,125.58 176.5,126C 175.584,126.278 174.918,126.778 174.5,127.5C 169.833,128.5 165.167,129.5 160.5,130.5C 157.975,128.823 155.309,127.323 152.5,126C 150,125.833 147.5,125.667 145,125.5C 136.093,126.529 127.26,127.863 118.5,129.5C 117.127,129.657 115.793,129.49 114.5,129C 119.528,126.49 124.861,124.823 130.5,124C 129.042,119.321 128.375,114.488 128.5,109.5C 128.834,102.488 129.334,95.4883 130,88.5C 129.732,79.6217 132.565,71.955 138.5,65.5C 131.074,60.0899 126.907,52.7566 126,43.5C 124.393,34.4718 125.893,26.1385 130.5,18.5 Z"/></g>
<g><path style="opacity:1" fill="#474e48" d="M 7.5,108.5 C 5.24595,109.415 3.24595,110.748 1.5,112.5C 1.06178,112.565 0.728446,112.399 0.5,112C 1.83333,110.667 3.16667,109.333 4.5,108C 5.74943,107.26 6.74943,107.427 7.5,108.5 Z"/></g>
<g><path style="opacity:1" fill="#1b1817" d="M 37.5,101.5 C 38.7281,102.306 39.7281,103.306 40.5,104.5C 44.6627,115.513 48.6627,126.513 52.5,137.5C 53.6005,138.605 54.2671,139.938 54.5,141.5C 53.3501,140.15 52.6834,140.316 52.5,142C 53.1476,143.44 53.4809,144.94 53.5,146.5C 53.1341,151.468 52.6341,151.134 52,145.5C 51.0862,146.654 50.2529,146.487 49.5,145C 50.7736,144.023 50.7736,143.189 49.5,142.5C 47.2518,131.175 43.9185,120.175 39.5,109.5C 39.8333,108.833 40.1667,108.167 40.5,107.5C 38.9617,105.757 37.9617,103.757 37.5,101.5 Z"/></g>
<g><path style="opacity:1" fill="#80786e" d="M 139.5,97.5 C 139.5,100.833 139.5,104.167 139.5,107.5C 138.833,109.5 138.167,111.5 137.5,113.5C 137.156,107.902 137.822,102.568 139.5,97.5 Z"/></g>
<g><path style="opacity:1" fill="#1b1a18" d="M 193.5,113.5 C 193.5,116.5 193.5,119.5 193.5,122.5C 193.631,123.376 193.298,124.043 192.5,124.5C 191.237,122.971 190.237,121.305 189.5,119.5C 189.167,116.833 188.833,114.167 188.5,111.5C 188.281,110.325 188.614,109.325 189.5,108.5C 190.134,110.772 191.468,112.439 193.5,113.5 Z"/></g>
<g><path style="opacity:1" fill="#3c3832" d="M 206.5,108.5 C 208.974,110.898 210.308,113.898 210.5,117.5C 210.802,120.059 210.468,122.393 209.5,124.5C 209.766,118.903 208.766,113.57 206.5,108.5 Z"/></g>
<g><path style="opacity:1" fill="#110e0d" d="M 283.5,124.5 C 284.058,125.79 285.058,126.623 286.5,127C 285.207,127.49 283.873,127.657 282.5,127.5C 279.236,126.676 275.902,126.342 272.5,126.5C 268.489,126.502 264.822,127.668 261.5,130C 257.292,133.713 252.959,137.213 248.5,140.5C 247.5,140.833 246.833,141.5 246.5,142.5C 245.833,143.833 245.167,143.833 244.5,142.5C 245.485,139.188 246.485,135.854 247.5,132.5C 249.918,130.091 251.918,127.424 253.5,124.5C 253.333,123.833 253.167,123.167 253,122.5C 248.817,125.674 245.817,129.674 244,134.5C 243.726,131.351 244.392,128.351 246,125.5C 248.04,123.63 249.873,121.63 251.5,119.5C 252.774,118.811 252.774,117.977 251.5,117C 252.449,116.383 253.282,116.549 254,117.5C 254.359,114.456 255.026,114.122 256,116.5C 257.487,115.747 257.654,114.914 256.5,114C 265.782,112.796 265.782,110.629 256.5,107.5C 257.263,106.732 258.263,106.232 259.5,106C 256.833,104.333 254.167,102.667 251.5,101C 250.04,100.189 249.707,99.3554 250.5,98.5C 256.999,103.083 263.999,106.583 271.5,109C 271.167,109.333 270.833,109.667 270.5,110C 273.82,112.994 277.487,115.494 281.5,117.5C 283.823,114.874 286.157,112.207 288.5,109.5C 288.833,110.167 289.167,110.833 289.5,111.5C 288.157,116.025 285.49,119.525 281.5,122C 282.381,122.708 283.047,123.542 283.5,124.5 Z"/></g>
<g><path style="opacity:1" fill="#dba88f" d="M 263.5,114.5 C 265.958,114.227 267.625,115.227 268.5,117.5C 266.513,119.327 264.179,120.327 261.5,120.5C 261.67,119.178 261.337,118.011 260.5,117C 261.571,116.148 262.571,115.315 263.5,114.5 Z"/></g>
<g><path style="opacity:1" fill="#a69a8a" d="M 195.5,110.5 C 193.824,114.243 194.157,117.576 196.5,120.5C 196.496,124.25 195.496,124.917 193.5,122.5C 193.5,119.5 193.5,116.5 193.5,113.5C 193.285,111.821 193.952,110.821 195.5,110.5 Z"/></g>
<g><path style="opacity:1" fill="#23211e" d="M 196.5,120.5 C 194.157,117.576 193.824,114.243 195.5,110.5C 195.435,110.062 195.601,109.728 196,109.5C 198.45,112.378 199.116,115.712 198,119.5C 197.617,120.056 197.117,120.389 196.5,120.5 Z"/></g>
<g><path style="opacity:1" fill="#867c6f" d="M 212.5,111.5 C 214.239,114.965 214.573,118.632 213.5,122.5C 212.511,118.893 212.177,115.226 212.5,111.5 Z"/></g>
<g><path style="opacity:1" fill="#8e8476" d="M 184.5,111.5 C 185.833,111.5 187.167,111.5 188.5,111.5C 188.833,114.167 189.167,116.833 189.5,119.5C 188.833,119.5 188.5,119.833 188.5,120.5C 188.167,120.5 187.833,120.5 187.5,120.5C 187.688,117.065 186.688,114.065 184.5,111.5 Z"/></g>
<g><path style="opacity:1" fill="#c79881" d="M 257.5,117.5 C 259.121,117.787 260.121,118.787 260.5,120.5C 255.229,125.77 254.229,124.77 257.5,117.5 Z"/></g>
<g><path style="opacity:1" fill="#988c7e" d="M 210.5,117.5 C 211.8,120.024 211.8,122.691 210.5,125.5C 209.893,125.376 209.56,125.043 209.5,124.5C 210.468,122.393 210.802,120.059 210.5,117.5 Z"/></g>
<g><path style="opacity:1" fill="#191614" d="M 241.5,108.5 C 243.344,110.279 244.01,112.612 243.5,115.5C 241.969,125.442 240.969,135.442 240.5,145.5C 239.613,136.199 239.279,126.866 239.5,117.5C 239.5,116.833 239.5,116.167 239.5,115.5C 240.117,115.611 240.617,115.944 241,116.5C 242.656,113.947 242.823,111.281 241.5,108.5 Z"/></g>
<g><path style="opacity:1" fill="#352c28" d="M 4.5,124.5 C 2.7274,123.686 2.2274,122.352 3,120.5C 3.79142,121.745 4.29142,123.078 4.5,124.5 Z"/></g>
<g><path style="opacity:1" fill="#151313" d="M 105.5,132.5 C 104.087,133.935 102.42,134.935 100.5,135.5C 93.8233,136.116 87.1566,136.783 80.5,137.5C 80.8333,136.833 81.1667,136.167 81.5,135.5C 85.819,134.965 90.1523,134.465 94.5,134C 92.714,133.215 91.214,132.049 90,130.5C 84.973,121.714 81.473,112.381 79.5,102.5C 80.2216,102.918 80.7216,103.584 81,104.5C 81.3333,103.5 81.6667,102.5 82,101.5C 82.1891,106.357 83.1891,111.024 85,115.5C 85.7282,103.76 87.0615,92.0933 89,80.5C 89.4728,78.221 90.4728,76.221 92,74.5C 91.6943,76.8229 91.0277,79.1563 90,81.5C 89.3333,96.1667 89.3333,110.833 90,125.5C 94.1604,130.628 99.3271,132.962 105.5,132.5 Z"/></g>
<g><path style="opacity:1" fill="#f4d4c1" d="M 187.5,120.5 C 187.833,120.5 188.167,120.5 188.5,120.5C 191.63,126.76 194.797,133.094 198,139.5C 198.667,143.833 198.667,148.167 198,152.5C 196.97,154.346 195.804,156.013 194.5,157.5C 193.225,155.27 191.225,153.937 188.5,153.5C 189.093,149.705 191.093,148.205 194.5,149C 192.135,147.211 190.468,145.044 189.5,142.5C 185.833,142.5 182.167,142.5 178.5,142.5C 178.785,140.712 178.452,139.045 177.5,137.5C 176.614,138.325 176.281,139.325 176.5,140.5C 174.254,139.79 171.92,139.29 169.5,139C 167.477,134.661 168.811,131.828 173.5,130.5C 174.127,129.583 174.461,128.583 174.5,127.5C 174.918,126.778 175.584,126.278 176.5,126C 180.191,125.58 183.858,125.08 187.5,124.5C 187.5,123.167 187.5,121.833 187.5,120.5 Z"/></g>
<g><path style="opacity:1" fill="#3c3430" d="M 22.5,116.5 C 25.3381,121.637 28.0048,126.97 30.5,132.5C 30.1667,132.5 29.8333,132.5 29.5,132.5C 28.8333,132.167 28.1667,131.833 27.5,131.5C 26.5383,128.243 25.0383,125.243 23,122.5C 22.5045,120.527 22.3379,118.527 22.5,116.5 Z"/></g>
<g><path style="opacity:1" fill="#f7d7c4" d="M 160.5,130.5 C 159.5,131.167 158.5,131.833 157.5,132.5C 152.891,133.756 148.225,134.922 143.5,136C 141.166,137.842 140.832,140.009 142.5,142.5C 132.472,145.672 122.805,149.839 113.5,155C 111.65,157.018 109.65,158.851 107.5,160.5C 104.14,158.82 100.807,157.153 97.5,155.5C 97.8039,154.85 98.1373,154.183 98.5,153.5C 95.4751,149.038 94.9751,144.371 97,139.5C 99.0714,138.897 100.238,137.564 100.5,135.5C 102.42,134.935 104.087,133.935 105.5,132.5C 109.56,132.515 113.56,132.015 117.5,131C 118.056,130.617 118.389,130.117 118.5,129.5C 127.26,127.863 136.093,126.529 145,125.5C 147.5,125.667 150,125.833 152.5,126C 155.309,127.323 157.975,128.823 160.5,130.5 Z"/></g>
<g><path style="opacity:1" fill="#2c2723" d="M 4.5,124.5 C 6.25027,125.659 7.25027,127.326 7.5,129.5C 5.2729,128.599 4.2729,126.933 4.5,124.5 Z"/></g>
<g><path style="opacity:1" fill="#fae7cf" d="M 272.5,126.5 C 275.902,126.342 279.236,126.676 282.5,127.5C 282.657,128.873 282.49,130.207 282,131.5C 280.293,133.037 278.793,134.704 277.5,136.5C 276.167,137.167 275.167,138.167 274.5,139.5C 273.518,140.141 272.518,140.807 271.5,141.5C 270.702,141.043 270.369,140.376 270.5,139.5C 272.064,135.326 272.731,130.993 272.5,126.5 Z"/></g>
<g><path style="opacity:1" fill="#2c2c2c" d="M 294.5,127.5 C 297.262,128.38 299.929,129.546 302.5,131C 301.101,131.595 299.768,131.428 298.5,130.5C 297.304,130.846 297.304,131.346 298.5,132C 303.657,132.803 308.657,134.136 313.5,136C 320.158,136.5 326.825,136.666 333.5,136.5C 336.232,148.196 340.065,159.529 345,170.5C 345.479,184.871 346.479,199.204 348,213.5C 348.173,200.788 347.839,188.121 347,175.5C 350.75,195.359 354.916,215.026 359.5,234.5C 359.5,281.5 359.5,328.5 359.5,375.5C 354.5,375.5 349.5,375.5 344.5,375.5C 347.178,370.863 346.678,370.53 343,374.5C 343.291,360.657 344.125,346.824 345.5,333C 343.94,319.137 342.106,305.304 340,291.5C 339.163,275.791 337.83,260.124 336,244.5C 330.412,219.144 323.745,194.144 316,169.5C 321.157,190.462 326.491,211.462 332,232.5C 335.232,247.35 336.898,262.35 337,277.5C 336.466,273.695 335.466,270.029 334,266.5C 335.805,276.742 337.471,287.076 339,297.5C 340.667,323.507 340.834,349.507 339.5,375.5C 327.5,375.5 315.5,375.5 303.5,375.5C 306.951,358.301 307.451,340.967 305,323.5C 303.975,318.732 302.642,314.066 301,309.5C 300.398,296.798 299.398,284.131 298,271.5C 294.991,258.143 290.991,245.143 286,232.5C 290.989,248.493 294.989,264.826 298,281.5C 298.667,288.167 298.667,294.833 298,301.5C 297.333,300.167 296.667,298.833 296,297.5C 295.743,300.017 296.41,302.35 298,304.5C 298.77,328.261 297.603,351.928 294.5,375.5C 286.167,375.5 277.833,375.5 269.5,375.5C 272.545,369.532 274.712,363.199 276,356.5C 278.196,341.235 279.696,325.901 280.5,310.5C 280.144,289.605 274.811,270.105 264.5,252C 266.112,249.384 268.112,247.05 270.5,245C 269.549,244.282 269.383,243.449 270,242.5C 276.826,231.399 283.659,220.232 290.5,209C 294.786,195.808 297.619,182.308 299,168.5C 309.346,196.213 317.679,224.547 324,253.5C 323.229,243.317 321.562,233.317 319,223.5C 322.603,232.845 324.936,242.512 326,252.5C 326.525,244.978 325.525,237.645 323,230.5C 315.394,208.347 307.394,186.347 299,164.5C 296.971,154.191 295.138,143.857 293.5,133.5C 293.205,131.265 293.539,129.265 294.5,127.5 Z"/></g>
<g><path style="opacity:1" fill="#eb9a7f" d="M 283.5,124.5 C 285.117,125.038 286.784,125.371 288.5,125.5C 289.388,128.054 289.721,130.721 289.5,133.5C 287.428,136.612 285.095,139.612 282.5,142.5C 281.264,143.246 279.93,143.579 278.5,143.5C 276.952,143.179 276.285,142.179 276.5,140.5C 278.527,140.662 280.527,140.495 282.5,140C 281.491,137.828 279.824,136.662 277.5,136.5C 278.793,134.704 280.293,133.037 282,131.5C 282.49,130.207 282.657,128.873 282.5,127.5C 283.873,127.657 285.207,127.49 286.5,127C 285.058,126.623 284.058,125.79 283.5,124.5 Z"/></g>
<g><path style="opacity:1" fill="#674d30" d="M 272.5,126.5 C 272.731,130.993 272.064,135.326 270.5,139.5C 268.5,141.5 266.5,143.5 264.5,145.5C 261.221,146.492 257.888,146.659 254.5,146C 255.167,145.667 255.833,145.333 256.5,145C 253.242,144.214 250.576,142.714 248.5,140.5C 252.959,137.213 257.292,133.713 261.5,130C 264.822,127.668 268.489,126.502 272.5,126.5 Z"/></g>
<g><path style="opacity:1" fill="#333130" d="M 157.5,132.5 C 159.167,132.5 160.833,132.5 162.5,132.5C 162.5,133.5 162.5,134.5 162.5,135.5C 158.707,135.731 155.374,137.065 152.5,139.5C 152.265,138.903 151.765,138.57 151,138.5C 148.08,139.711 145.247,141.044 142.5,142.5C 140.832,140.009 141.166,137.842 143.5,136C 148.225,134.922 152.891,133.756 157.5,132.5 Z"/></g>
<g><path style="opacity:1" fill="#2d2e2d" d="M 340.5,143.5 C 341.4,148.332 342.066,153.332 342.5,158.5C 338.086,150.084 335.586,141.084 335,131.5C 337.066,136.363 338.732,141.363 340,146.5C 340.483,145.552 340.649,144.552 340.5,143.5 Z"/></g>
<g><path style="opacity:1" fill="#958071" d="M 239.5,117.5 C 239.279,126.866 239.613,136.199 240.5,145.5C 239.849,144.909 239.182,144.243 238.5,143.5C 237.265,134.641 237.598,125.974 239.5,117.5 Z"/></g>
<g><path style="opacity:1" fill="#e7af95" d="M 243.5,115.5 C 246.129,116.129 247.796,117.795 248.5,120.5C 249.417,119.873 250.417,119.539 251.5,119.5C 249.873,121.63 248.04,123.63 246,125.5C 244.392,128.351 243.726,131.351 244,134.5C 245.817,129.674 248.817,125.674 253,122.5C 253.167,123.167 253.333,123.833 253.5,124.5C 251.918,127.424 249.918,130.091 247.5,132.5C 246.485,135.854 245.485,139.188 244.5,142.5C 242.883,143.589 242.05,145.256 242,147.5C 241.283,146.956 240.783,146.289 240.5,145.5C 240.969,135.442 241.969,125.442 243.5,115.5 Z"/></g>
<g><path style="opacity:1" fill="#7b6358" d="M 81.5,135.5 C 81.1667,136.167 80.8333,136.833 80.5,137.5C 75.5208,136.754 75.8542,136.088 81.5,135.5 Z"/></g>
<g><path style="opacity:1" fill="#edc1ab" d="M 174.5,127.5 C 174.461,128.583 174.127,129.583 173.5,130.5C 168.811,131.828 167.477,134.661 169.5,139C 171.92,139.29 174.254,139.79 176.5,140.5C 176.167,141.167 175.833,141.833 175.5,142.5C 170.767,142.777 166.1,142.443 161.5,141.5C 160.614,142.325 160.281,143.325 160.5,144.5C 158.265,144.205 156.265,144.539 154.5,145.5C 154.167,146.167 153.833,146.833 153.5,147.5C 151.284,148.203 149.451,149.536 148,151.5C 145.173,154.329 143.173,157.663 142,161.5C 140.277,159.283 138.777,156.95 137.5,154.5C 136.511,152.218 136.011,149.885 136,147.5C 141.323,144.422 146.823,141.755 152.5,139.5C 155.374,137.065 158.707,135.731 162.5,135.5C 162.5,134.5 162.5,133.5 162.5,132.5C 160.833,132.5 159.167,132.5 157.5,132.5C 158.5,131.833 159.5,131.167 160.5,130.5C 165.167,129.5 169.833,128.5 174.5,127.5 Z"/></g>
<g><path style="opacity:1" fill="#96ad9f" d="M 15.5,142.5 C 14.5656,147.339 13.7323,152.339 13,157.5C 12.3292,156.748 11.4959,156.414 10.5,156.5C 9.54227,155.038 8.37561,153.705 7,152.5C 7.07248,146.52 7.23914,140.52 7.5,134.5C 7.35055,133.448 7.51722,132.448 8,131.5C 10.51,135.195 13.01,138.862 15.5,142.5 Z"/></g>
<g><path style="opacity:1" fill="#786960" d="M 27.5,131.5 C 28.1667,131.833 28.8333,132.167 29.5,132.5C 30.5467,135.596 31.88,138.596 33.5,141.5C 33.3333,141.833 33.1667,142.167 33,142.5C 31.8036,140.714 30.3036,139.381 28.5,138.5C 28.9382,138.565 29.2716,138.399 29.5,138C 28.3313,135.993 27.6646,133.827 27.5,131.5 Z"/></g>
<g><path style="opacity:1" fill="#292c29" d="M 1.5,128.5 C 3.25797,128.877 4.92464,129.544 6.5,130.5C 7.10667,130.376 7.44001,130.043 7.5,129.5C 11.3214,133.806 14.6547,138.473 17.5,143.5C 16.8333,143.167 16.1667,142.833 15.5,142.5C 13.01,138.862 10.51,135.195 8,131.5C 7.51722,132.448 7.35055,133.448 7.5,134.5C 6.96815,139.832 5.96815,143.832 4.5,146.5C 4.22319,141.767 4.55652,137.1 5.5,132.5C 4.13347,131.16 2.80014,129.827 1.5,128.5 Z"/></g>
<g><path style="opacity:1" fill="#c8b7a4" d="M 270.5,139.5 C 270.369,140.376 270.702,141.043 271.5,141.5C 272.518,140.807 273.518,140.141 274.5,139.5C 272.703,143.952 269.37,146.619 264.5,147.5C 263.537,147.03 263.537,146.363 264.5,145.5C 266.5,143.5 268.5,141.5 270.5,139.5 Z"/></g>
<g><path style="opacity:1" fill="#2d2d2c" d="M 29.5,132.5 C 29.8333,132.5 30.1667,132.5 30.5,132.5C 33.3356,138.171 36.1689,143.838 39,149.5C 40.0395,147.254 41.2062,145.087 42.5,143C 45.1266,142.731 47.4599,142.564 49.5,142.5C 50.7736,143.189 50.7736,144.023 49.5,145C 50.2529,146.487 51.0862,146.654 52,145.5C 52.6341,151.134 53.1341,151.468 53.5,146.5C 54.385,150.064 55.385,153.731 56.5,157.5C 55.5351,160.128 53.8685,162.128 51.5,163.5C 49.3146,163.296 47.3146,162.63 45.5,161.5C 43.0011,158.831 40.6677,155.998 38.5,153C 35.0644,154.301 31.3977,154.635 27.5,154C 24.4691,151.492 21.4691,148.992 18.5,146.5C 18.5,145.833 18.5,145.167 18.5,144.5C 19.4584,144.953 20.2917,145.619 21,146.5C 20.5624,143.94 20.729,141.44 21.5,139C 23.8098,138.503 26.1432,138.337 28.5,138.5C 30.3036,139.381 31.8036,140.714 33,142.5C 33.1667,142.167 33.3333,141.833 33.5,141.5C 31.88,138.596 30.5467,135.596 29.5,132.5 Z"/></g>
<g><path style="opacity:1" fill="#27201d" d="M 188.5,153.5 C 187.834,152.088 187.501,150.755 187.5,149.5C 189.931,147.932 189.931,146.432 187.5,145C 184.518,144.502 181.518,144.335 178.5,144.5C 178.5,145.5 178.5,146.5 178.5,147.5C 177.222,147.218 176.222,146.551 175.5,145.5C 175.5,145.167 175.5,144.833 175.5,144.5C 175.5,143.833 175.5,143.167 175.5,142.5C 175.833,141.833 176.167,141.167 176.5,140.5C 176.281,139.325 176.614,138.325 177.5,137.5C 178.452,139.045 178.785,140.712 178.5,142.5C 182.167,142.5 185.833,142.5 189.5,142.5C 190.468,145.044 192.135,147.211 194.5,149C 191.093,148.205 189.093,149.705 188.5,153.5 Z"/></g>
<g><path style="opacity:1" fill="#f4b79b" d="M 289.5,133.5 C 293.173,145.873 295.173,158.54 295.5,171.5C 294.662,171.842 294.328,172.508 294.5,173.5C 293.861,169.203 292.861,164.87 291.5,160.5C 289.35,162.149 287.35,163.982 285.5,166C 283.674,166.292 281.841,166.125 280,165.5C 274.885,169.018 269.551,169.351 264,166.5C 263.503,164.19 263.337,161.857 263.5,159.5C 264.552,159.649 265.552,159.483 266.5,159C 264.104,155.314 264.437,151.814 267.5,148.5C 272.548,151.495 273.215,150.995 269.5,147C 272.736,143.981 276.069,143.814 279.5,146.5C 279.833,146.167 280.167,145.833 280.5,145.5C 279.757,144.818 279.091,144.151 278.5,143.5C 279.93,143.579 281.264,143.246 282.5,142.5C 285.095,139.612 287.428,136.612 289.5,133.5 Z"/></g>
<g><path style="opacity:1" fill="#ecb297" d="M 175.5,144.5 C 175.5,144.833 175.5,145.167 175.5,145.5C 172.91,147.324 169.91,148.657 166.5,149.5C 165.218,148.292 165.218,146.958 166.5,145.5C 169.421,144.593 172.421,144.26 175.5,144.5 Z"/></g>
<g><path style="opacity:1" fill="#0a0806" d="M 154.5,145.5 C 159.507,145.01 160.174,145.843 156.5,148C 157.056,148.383 157.389,148.883 157.5,149.5C 156.289,154.107 157.622,155.107 161.5,152.5C 162.302,151.048 162.802,149.382 163,147.5C 163.483,148.448 163.649,149.448 163.5,150.5C 164.791,150.737 165.791,150.404 166.5,149.5C 169.91,148.657 172.91,147.324 175.5,145.5C 176.222,146.551 177.222,147.218 178.5,147.5C 181.219,148.913 184.219,149.58 187.5,149.5C 187.501,150.755 187.834,152.088 188.5,153.5C 191.225,153.937 193.225,155.27 194.5,157.5C 189.833,157.5 185.167,157.5 180.5,157.5C 175.1,157.933 169.767,158.766 164.5,160C 160.146,163.03 155.812,166.03 151.5,169C 149.323,170.202 146.989,170.702 144.5,170.5C 143.766,169.292 143.433,167.959 143.5,166.5C 146.813,163.522 150.147,160.522 153.5,157.5C 154.793,155.364 154.793,153.364 153.5,151.5C 153.888,150.309 153.888,148.976 153.5,147.5C 153.833,146.833 154.167,146.167 154.5,145.5 Z"/></g>
<g><path style="opacity:1" fill="#4e3d35" d="M 175.5,142.5 C 175.5,143.167 175.5,143.833 175.5,144.5C 172.421,144.26 169.421,144.593 166.5,145.5C 165.218,146.958 165.218,148.292 166.5,149.5C 165.791,150.404 164.791,150.737 163.5,150.5C 163.649,149.448 163.483,148.448 163,147.5C 162.802,149.382 162.302,151.048 161.5,152.5C 161.5,151.167 161.5,149.833 161.5,148.5C 160.041,148.433 158.708,148.766 157.5,149.5C 157.389,148.883 157.056,148.383 156.5,148C 160.174,145.843 159.507,145.01 154.5,145.5C 156.265,144.539 158.265,144.205 160.5,144.5C 160.281,143.325 160.614,142.325 161.5,141.5C 166.1,142.443 170.767,142.777 175.5,142.5 Z"/></g>
<g><path style="opacity:1" fill="#e8c6b2" d="M 187.5,149.5 C 184.219,149.58 181.219,148.913 178.5,147.5C 178.5,146.5 178.5,145.5 178.5,144.5C 181.518,144.335 184.518,144.502 187.5,145C 189.931,146.432 189.931,147.932 187.5,149.5 Z"/></g>
<g><path style="opacity:1" fill="#49362a" d="M 277.5,136.5 C 279.824,136.662 281.491,137.828 282.5,140C 280.527,140.495 278.527,140.662 276.5,140.5C 276.285,142.179 276.952,143.179 278.5,143.5C 279.091,144.151 279.757,144.818 280.5,145.5C 280.167,145.833 279.833,146.167 279.5,146.5C 276.069,143.814 272.736,143.981 269.5,147C 273.215,150.995 272.548,151.495 267.5,148.5C 266.417,148.539 265.417,148.873 264.5,149.5C 264.002,150.603 263.669,151.603 263.5,152.5C 261.51,151.127 259.343,150.127 257,149.5C 257.046,151.313 256.88,152.979 256.5,154.5C 255.824,153.398 255.158,152.398 254.5,151.5C 254.611,150.883 254.944,150.383 255.5,150C 253.854,148.179 251.854,147.013 249.5,146.5C 248.488,145.128 247.488,143.795 246.5,142.5C 246.833,141.5 247.5,140.833 248.5,140.5C 250.576,142.714 253.242,144.214 256.5,145C 255.833,145.333 255.167,145.667 254.5,146C 257.888,146.659 261.221,146.492 264.5,145.5C 263.537,146.363 263.537,147.03 264.5,147.5C 269.37,146.619 272.703,143.952 274.5,139.5C 275.167,138.167 276.167,137.167 277.5,136.5 Z"/></g>
<g><path style="opacity:1" fill="#49554e" d="M 7.5,134.5 C 7.23914,140.52 7.07248,146.52 7,152.5C 8.37561,153.705 9.54227,155.038 10.5,156.5C 8.98261,156.489 7.81595,155.823 7,154.5C 6.2419,156.769 6.40857,158.936 7.5,161C 6.55085,161.617 5.71752,161.451 5,160.5C 4.21642,156.95 3.38309,153.45 2.5,150C 3.0848,148.698 3.75147,147.531 4.5,146.5C 5.96815,143.832 6.96815,139.832 7.5,134.5 Z"/></g>
<g><path style="opacity:1" fill="#6e7f75" d="M 58.5,146.5 C 59.5,146.5 60.5,146.5 61.5,146.5C 61.5,148.5 61.5,150.5 61.5,152.5C 60.5387,156.335 59.7054,160.335 59,164.5C 58.2303,165.598 57.397,165.598 56.5,164.5C 57.8193,158.581 58.486,152.581 58.5,146.5 Z"/></g>
<g><path style="opacity:1" fill="#96ad9f" d="M 78.5,150.5 C 76.5212,154.778 74.8545,159.111 73.5,163.5C 72.2745,164.937 71.2745,166.604 70.5,168.5C 69.675,169.386 68.675,169.719 67.5,169.5C 65.78,168.136 63.78,167.136 61.5,166.5C 61.1667,165.667 60.8333,164.833 60.5,164C 61.3624,160.189 62.0291,156.356 62.5,152.5C 62.3379,150.473 62.5045,148.473 63,146.5C 68.2249,147.598 73.3916,148.931 78.5,150.5 Z"/></g>
<g><path style="opacity:1" fill="#95ac9e" d="M 1.5,128.5 C 2.80014,129.827 4.13347,131.16 5.5,132.5C 4.55652,137.1 4.22319,141.767 4.5,146.5C 3.75147,147.531 3.0848,148.698 2.5,150C 3.38309,153.45 4.21642,156.95 5,160.5C 5.71752,161.451 6.55085,161.617 7.5,161C 6.40857,158.936 6.2419,156.769 7,154.5C 7.81595,155.823 8.98261,156.489 10.5,156.5C 12.9235,159.69 15.9235,161.856 19.5,163C 17.6431,161.818 16.6431,160.151 16.5,158C 16.9919,153.995 17.6586,150.162 18.5,146.5C 21.4691,148.992 24.4691,151.492 27.5,154C 31.3977,154.635 35.0644,154.301 38.5,153C 40.6677,155.998 43.0011,158.831 45.5,161.5C 45.3893,162.117 45.056,162.617 44.5,163C 48.0732,164.371 51.5732,165.871 55,167.5C 55.3333,170.167 55.6667,172.833 56,175.5C 56.6008,177.359 57.4341,177.692 58.5,176.5C 58.162,173.843 58.8287,171.51 60.5,169.5C 62.9724,171.251 65.639,172.085 68.5,172C 67.1667,171.333 65.8333,170.667 64.5,170C 65.448,169.517 66.448,169.351 67.5,169.5C 68.3909,170.261 69.0576,171.261 69.5,172.5C 68.9344,174.697 68.2677,176.864 67.5,179C 67.9784,181.226 68.645,183.392 69.5,185.5C 70.0743,181.63 71.241,177.964 73,174.5C 76.2713,175.13 79.4379,176.13 82.5,177.5C 81.5721,178.768 81.4054,180.101 82,181.5C 82.3742,180.584 82.8742,179.75 83.5,179C 85.8333,178.667 88.1667,178.333 90.5,178C 88.8198,177.653 87.8198,176.653 87.5,175C 98.3743,152.437 97.3743,151.937 84.5,173.5C 84.8457,174.696 85.3457,174.696 86,173.5C 86.7494,174.635 86.5827,175.635 85.5,176.5C 81.5463,175.407 77.8796,173.74 74.5,171.5C 77.0694,167.033 79.0694,162.367 80.5,157.5C 81.9313,156.22 82.5979,154.553 82.5,152.5C 91.0592,154.281 99.0592,157.447 106.5,162C 103.202,166.3 99.5352,170.3 95.5,174C 94.552,174.483 93.552,174.649 92.5,174.5C 92.5,175.5 92.5,176.5 92.5,177.5C 89.8883,184.934 87.7216,192.601 86,200.5C 83.9999,203.666 81.4999,206.332 78.5,208.5C 77.6193,210.304 76.286,211.804 74.5,213C 76.689,213.677 77.0224,214.844 75.5,216.5C 73.604,217.466 71.604,217.799 69.5,217.5C 56.0615,219.271 42.5615,220.271 29,220.5C 19.6311,220.778 10.4644,219.944 1.5,218C 3.01748,219.685 4.68415,221.185 6.5,222.5C 6.48945,221.559 6.98945,220.892 8,220.5C 26.6799,222.993 45.3466,222.659 64,219.5C 65.3847,219.514 66.5514,219.848 67.5,220.5C 65.1774,224.324 61.8441,226.657 57.5,227.5C 56.9084,230.127 56.5751,232.794 56.5,235.5C 55.1779,235.33 54.0113,235.663 53,236.5C 51.9347,243.329 49.6014,249.662 46,255.5C 31.0322,268.8 16.3655,282.466 2,296.5C 1.19234,298.579 1.35901,300.579 2.5,302.5C 5.21544,299.943 7.3821,296.943 9,293.5C 14.7164,286.739 20.883,280.406 27.5,274.5C 28.7838,279.28 28.4505,283.946 26.5,288.5C 28.5837,285.947 29.917,282.947 30.5,279.5C 31.8636,282.942 32.8636,286.608 33.5,290.5C 33.2333,296.455 33.0666,302.455 33,308.5C 32.6667,306.5 32.3333,304.5 32,302.5C 31.6118,307.706 32.1118,312.706 33.5,317.5C 34.2296,332.248 30.7296,345.915 23,358.5C 19.3367,364.321 15.5034,369.988 11.5,375.5C 7.5,375.5 3.5,375.5 -0.5,375.5C -0.5,293.5 -0.5,211.5 -0.5,129.5C 0.166667,129.167 0.833333,128.833 1.5,128.5 Z"/></g>
<g><path style="opacity:1" fill="#2b2b2b" d="M 62.5,124.5 C 63.7742,130.796 64.7742,137.13 65.5,143.5C 65.3893,144.117 65.056,144.617 64.5,145C 68.5265,146.06 72.5265,147.227 76.5,148.5C 77.4419,148.392 78.2753,148.059 79,147.5C 79.5,148.667 80.3333,149.5 81.5,150C 86.7584,152.133 92.0918,153.966 97.5,155.5C 100.807,157.153 104.14,158.82 107.5,160.5C 109.65,158.851 111.65,157.018 113.5,155C 122.805,149.839 132.472,145.672 142.5,142.5C 145.247,141.044 148.08,139.711 151,138.5C 151.765,138.57 152.265,138.903 152.5,139.5C 146.823,141.755 141.323,144.422 136,147.5C 136.011,149.885 136.511,152.218 137.5,154.5C 135.615,156.795 135.115,159.462 136,162.5C 138.234,167.404 140.901,172.071 144,176.5C 146.184,181.7 147.517,187.034 148,192.5C 146.928,189.782 145.762,187.115 144.5,184.5C 147.067,195.401 150.233,206.401 154,217.5C 153.119,210.006 151.286,202.673 148.5,195.5C 148.737,192.937 149.237,192.937 150,195.5C 151,198.833 152,202.167 153,205.5C 153.464,204.906 153.631,204.239 153.5,203.5C 153.833,203.5 154.167,203.5 154.5,203.5C 154.861,207.915 156.194,211.915 158.5,215.5C 158.43,219.425 159.097,223.091 160.5,226.5C 160.5,228.5 160.5,230.5 160.5,232.5C 159.504,232.586 158.671,232.252 158,231.5C 158.311,232.935 158.145,234.268 157.5,235.5C 158.347,236.845 159.513,237.845 161,238.5C 162.131,242.894 163.465,247.227 165,251.5C 165.464,250.906 165.631,250.239 165.5,249.5C 168.325,257.808 169.825,266.474 170,275.5C 172.04,277.37 173.873,279.37 175.5,281.5C 173.833,280.833 172.167,280.167 170.5,279.5C 169.312,280.684 168.145,280.684 167,279.5C 158.236,250.777 150.569,221.777 144,192.5C 149.058,225.011 157.392,256.678 169,287.5C 169.492,286.451 169.326,285.451 168.5,284.5C 168.846,283.304 169.346,283.304 170,284.5C 170.333,287.5 170.667,290.5 171,293.5C 171.333,292.5 171.667,291.5 172,290.5C 172.973,292.392 173.64,294.392 174,296.5C 174.464,295.906 174.631,295.239 174.5,294.5C 176.179,303.56 178.512,312.56 181.5,321.5C 183.446,331.071 186.28,340.404 190,349.5C 191.113,350.305 192.279,350.972 193.5,351.5C 198.04,357.207 203.373,362.04 209.5,366C 213.5,366.667 217.5,366.667 221.5,366C 225.617,362.272 228.617,357.772 230.5,352.5C 229.054,347.606 227.054,342.94 224.5,338.5C 225.723,337.386 227.056,337.219 228.5,338C 230.019,339.351 231.352,340.851 232.5,342.5C 233.192,341.975 233.692,341.308 234,340.5C 234.521,343.874 235.854,346.874 238,349.5C 239.055,358.86 237.221,367.526 232.5,375.5C 210.167,375.5 187.833,375.5 165.5,375.5C 163.515,367.407 161.848,359.24 160.5,351C 160.892,349.989 161.559,349.489 162.5,349.5C 161.855,348.354 161.022,347.354 160,346.5C 158.479,333.481 156.813,320.481 155,307.5C 153.846,299.21 152.012,291.21 149.5,283.5C 153.316,303.734 156.149,324.068 158,344.5C 155.377,342.985 154.377,340.985 155,338.5C 150.6,334.033 146.934,329.033 144,323.5C 135.122,306.41 126.788,289.077 119,271.5C 113.86,250.748 107.526,230.415 100,210.5C 98.4966,201.993 96.9966,193.493 95.5,185C 96.0925,182.491 96.2592,179.991 96,177.5C 94.8545,178.684 93.6879,178.684 92.5,177.5C 92.5,176.5 92.5,175.5 92.5,174.5C 93.552,174.649 94.552,174.483 95.5,174C 99.5352,170.3 103.202,166.3 106.5,162C 99.0592,157.447 91.0592,154.281 82.5,152.5C 82.5979,154.553 81.9313,156.22 80.5,157.5C 80.9539,155.259 80.9539,153.259 80.5,151.5C 80.1583,150.662 79.4916,150.328 78.5,150.5C 73.3916,148.931 68.2249,147.598 63,146.5C 62.5045,148.473 62.3379,150.473 62.5,152.5C 62.1667,152.5 61.8333,152.5 61.5,152.5C 61.5,150.5 61.5,148.5 61.5,146.5C 60.5,146.5 59.5,146.5 58.5,146.5C 56.4131,145.415 55.0798,143.749 54.5,141.5C 54.2671,139.938 53.6005,138.605 52.5,137.5C 53.3171,135.031 53.8171,132.365 54,129.5C 56.6667,126.833 59.3333,126.833 62,129.5C 62.4935,127.866 62.6602,126.199 62.5,124.5 Z"/></g>
<g><path style="opacity:1" fill="#e4b095" d="M 161.5,152.5 C 157.622,155.107 156.289,154.107 157.5,149.5C 158.708,148.766 160.041,148.433 161.5,148.5C 161.5,149.833 161.5,151.167 161.5,152.5 Z"/></g>
<g><path style="opacity:1" fill="#f9d8c4" d="M 249.5,146.5 C 251.854,147.013 253.854,148.179 255.5,150C 254.944,150.383 254.611,150.883 254.5,151.5C 252.7,152.473 250.866,153.473 249,154.5C 248.833,155.667 248.667,156.833 248.5,158C 249.769,162.915 251.102,167.749 252.5,172.5C 256.566,171.899 260.566,171.899 264.5,172.5C 266.221,177.722 269.721,181.055 275,182.5C 277.569,182.467 279.403,181.3 280.5,179C 283.5,178.667 286.5,178.333 289.5,178C 290.445,175.554 292.111,174.054 294.5,173.5C 294.328,172.508 294.662,171.842 295.5,171.5C 295.813,175.042 295.479,178.375 294.5,181.5C 294.66,179.801 294.494,178.134 294,176.5C 293.667,178.833 293.333,181.167 293,183.5C 291.442,185.359 289.609,186.859 287.5,188C 284.975,188.896 282.808,188.396 281,186.5C 272.426,191.827 264.259,191.16 256.5,184.5C 254.928,180.359 252.595,176.692 249.5,173.5C 250.372,177.462 250.372,181.462 249.5,185.5C 249.813,182.753 249.48,180.086 248.5,177.5C 247.831,179.631 247.165,181.631 246.5,183.5C 246.66,181.801 246.494,180.134 246,178.5C 245.5,180.333 244.333,181.5 242.5,182C 238.644,182.867 234.977,184.2 231.5,186C 230.167,186.667 228.833,186.667 227.5,186C 222.509,182.531 219.676,177.697 219,171.5C 216.081,153.245 223.248,147.245 240.5,153.5C 238.447,155.67 235.947,157.336 233,158.5C 231.951,157.483 230.784,157.316 229.5,158C 228.667,159.5 227.5,160.667 226,161.5C 225.333,165.833 225.333,170.167 226,174.5C 230.398,178.481 234.231,177.981 237.5,173C 240.764,174.027 243.597,173.194 246,170.5C 246.087,164.703 245.254,159.369 243.5,154.5C 244.833,154.5 246.167,154.5 247.5,154.5C 247.111,151.447 247.777,148.78 249.5,146.5 Z"/></g>
<g><path style="opacity:1" fill="#f8c8b1" d="M 267.5,148.5 C 264.437,151.814 264.104,155.314 266.5,159C 265.552,159.483 264.552,159.649 263.5,159.5C 263.337,161.857 263.503,164.19 264,166.5C 269.551,169.351 274.885,169.018 280,165.5C 281.841,166.125 283.674,166.292 285.5,166C 287.35,163.982 289.35,162.149 291.5,160.5C 292.861,164.87 293.861,169.203 294.5,173.5C 292.111,174.054 290.445,175.554 289.5,178C 286.5,178.333 283.5,178.667 280.5,179C 279.403,181.3 277.569,182.467 275,182.5C 269.721,181.055 266.221,177.722 264.5,172.5C 260.566,171.899 256.566,171.899 252.5,172.5C 251.102,167.749 249.769,162.915 248.5,158C 248.667,156.833 248.833,155.667 249,154.5C 250.866,153.473 252.7,152.473 254.5,151.5C 255.158,152.398 255.824,153.398 256.5,154.5C 256.88,152.979 257.046,151.313 257,149.5C 259.343,150.127 261.51,151.127 263.5,152.5C 263.669,151.603 264.002,150.603 264.5,149.5C 265.417,148.873 266.417,148.539 267.5,148.5 Z"/></g>
<g><path style="opacity:1" fill="#5c6a61" d="M 15.5,142.5 C 16.1667,142.833 16.8333,143.167 17.5,143.5C 18.1667,143.5 18.5,143.833 18.5,144.5C 18.5,145.167 18.5,145.833 18.5,146.5C 17.6586,150.162 16.9919,153.995 16.5,158C 16.6431,160.151 17.6431,161.818 19.5,163C 15.9235,161.856 12.9235,159.69 10.5,156.5C 11.4959,156.414 12.3292,156.748 13,157.5C 13.7323,152.339 14.5656,147.339 15.5,142.5 Z"/></g>
<g><path style="opacity:1" fill="#e4ac92" d="M 153.5,151.5 C 154.793,153.364 154.793,155.364 153.5,157.5C 150.147,160.522 146.813,163.522 143.5,166.5C 142.588,165.262 142.421,163.928 143,162.5C 146.704,158.964 150.204,155.298 153.5,151.5 Z"/></g>
<g><path style="opacity:1" fill="#f8c8b1" d="M 240.5,153.5 C 241.391,154.11 242.391,154.443 243.5,154.5C 245.254,159.369 246.087,164.703 246,170.5C 243.597,173.194 240.764,174.027 237.5,173C 234.231,177.981 230.398,178.481 226,174.5C 225.333,170.167 225.333,165.833 226,161.5C 227.5,160.667 228.667,159.5 229.5,158C 230.784,157.316 231.951,157.483 233,158.5C 235.947,157.336 238.447,155.67 240.5,153.5 Z"/></g>
<g><path style="opacity:1" fill="#5e6d64" d="M 78.5,150.5 C 79.4916,150.328 80.1583,150.662 80.5,151.5C 78.1667,155.5 75.8333,159.5 73.5,163.5C 74.8545,159.111 76.5212,154.778 78.5,150.5 Z"/></g>
<g><path style="opacity:1" fill="#95ad9e" d="M 80.5,151.5 C 80.9539,153.259 80.9539,155.259 80.5,157.5C 78.0676,161.524 75.7342,165.69 73.5,170C 72.8333,170.667 72.1667,170.667 71.5,170C 73.0163,168.103 73.683,165.936 73.5,163.5C 75.8333,159.5 78.1667,155.5 80.5,151.5 Z"/></g>
<g><path style="opacity:1" fill="#95ac9e" d="M 54.5,141.5 C 55.0798,143.749 56.4131,145.415 58.5,146.5C 58.486,152.581 57.8193,158.581 56.5,164.5C 54.8828,163.962 53.2161,163.629 51.5,163.5C 53.8685,162.128 55.5351,160.128 56.5,157.5C 55.385,153.731 54.385,150.064 53.5,146.5C 53.4809,144.94 53.1476,143.44 52.5,142C 52.6834,140.316 53.3501,140.15 54.5,141.5 Z"/></g>
<g><path style="opacity:1" fill="#444f49" d="M 80.5,157.5 C 79.0694,162.367 77.0694,167.033 74.5,171.5C 77.8796,173.74 81.5463,175.407 85.5,176.5C 86.5827,175.635 86.7494,174.635 86,173.5C 85.3457,174.696 84.8457,174.696 84.5,173.5C 97.3743,151.937 98.3743,152.437 87.5,175C 87.8198,176.653 88.8198,177.653 90.5,178C 88.1667,178.333 85.8333,178.667 83.5,179C 82.8742,179.75 82.3742,180.584 82,181.5C 81.4054,180.101 81.5721,178.768 82.5,177.5C 79.4379,176.13 76.2713,175.13 73,174.5C 71.241,177.964 70.0743,181.63 69.5,185.5C 68.645,183.392 67.9784,181.226 67.5,179C 68.2677,176.864 68.9344,174.697 69.5,172.5C 69.0576,171.261 68.3909,170.261 67.5,169.5C 68.675,169.719 69.675,169.386 70.5,168.5C 71.2745,166.604 72.2745,164.937 73.5,163.5C 73.683,165.936 73.0163,168.103 71.5,170C 72.1667,170.667 72.8333,170.667 73.5,170C 75.7342,165.69 78.0676,161.524 80.5,157.5 Z"/></g>
<g><path style="opacity:1" fill="#664c32" d="M 180.5,157.5 C 179.673,163.46 178.173,169.126 176,174.5C 180.57,171.862 184.904,168.862 189,165.5C 189.995,166.066 190.828,166.733 191.5,167.5C 189.319,167.284 187.653,168.117 186.5,170C 188.324,170.66 189.657,171.827 190.5,173.5C 188.693,172.385 186.693,171.719 184.5,171.5C 180.85,172.319 180.85,173.652 184.5,175.5C 184.167,175.833 183.833,176.167 183.5,176.5C 181.322,173.962 179.322,173.962 177.5,176.5C 177.785,178.288 177.452,179.955 176.5,181.5C 175.605,179.693 174.272,178.36 172.5,177.5C 170.085,177.719 169.085,179.052 169.5,181.5C 167.656,180.796 167.156,179.463 168,177.5C 172.707,175.153 175.373,171.486 176,166.5C 172.046,173.807 165.879,176.307 157.5,174C 154.911,172.686 152.244,172.019 149.5,172C 150.056,172.383 150.389,172.883 150.5,173.5C 149.244,173.096 148.077,172.429 147,171.5C 146.235,171.57 145.735,171.903 145.5,172.5C 144.662,172.158 144.328,171.492 144.5,170.5C 146.989,170.702 149.323,170.202 151.5,169C 155.812,166.03 160.146,163.03 164.5,160C 169.767,158.766 175.1,157.933 180.5,157.5 Z"/></g>
<g><path style="opacity:1" fill="#6a7a70" d="M 45.5,161.5 C 47.3146,162.63 49.3146,163.296 51.5,163.5C 53.2161,163.629 54.8828,163.962 56.5,164.5C 56.3433,165.873 56.51,167.207 57,168.5C 57.763,165.937 58.263,165.937 58.5,168.5C 57.3369,171.327 57.3369,173.994 58.5,176.5C 57.4341,177.692 56.6008,177.359 56,175.5C 55.6667,172.833 55.3333,170.167 55,167.5C 51.5732,165.871 48.0732,164.371 44.5,163C 45.056,162.617 45.3893,162.117 45.5,161.5 Z"/></g>
<g><path style="opacity:1" fill="#55625a" d="M 33.5,158.5 C 34.8802,162.437 34.7136,166.437 33,170.5C 32.6432,166.49 32.8099,162.49 33.5,158.5 Z"/></g>
<g><path style="opacity:1" fill="#fbd9c6" d="M 191.5,167.5 C 193.394,170.187 194.061,170.187 193.5,167.5C 196.766,168.041 200.1,168.207 203.5,168C 206.618,169.96 209.951,171.627 213.5,173C 219.212,178.669 221.045,185.503 219,193.5C 217.764,200.635 214.431,206.635 209,211.5C 208.941,214.822 207.774,217.656 205.5,220C 200.86,221.092 196.193,222.092 191.5,223C 190.449,224.385 189.116,225.385 187.5,226C 183.5,226.333 179.5,226.667 175.5,227C 170.193,230.479 165.193,230.312 160.5,226.5C 159.097,223.091 158.43,219.425 158.5,215.5C 158.783,214.711 159.283,214.044 160,213.5C 162.543,219.47 167.043,221.637 173.5,220C 177.293,218.184 180.96,216.184 184.5,214C 185.833,212.333 187.167,210.667 188.5,209C 190.035,208.504 191.535,208.67 193,209.5C 195.337,208.192 197.837,207.192 200.5,206.5C 201.309,204.929 201.643,203.262 201.5,201.5C 204.5,201.833 205.833,200.5 205.5,197.5C 206.822,197.67 207.989,197.337 209,196.5C 209.667,192.5 209.667,188.5 209,184.5C 207.26,183.284 206.26,181.618 206,179.5C 204.062,178.14 202.396,178.473 201,180.5C 199.471,179.271 198.304,177.771 197.5,176C 194.896,175.61 192.562,174.776 190.5,173.5C 189.657,171.827 188.324,170.66 186.5,170C 187.653,168.117 189.319,167.284 191.5,167.5 Z"/></g>
<g><path style="opacity:1" fill="#483e38" d="M 191.5,167.5 C 192.167,167.5 192.833,167.5 193.5,167.5C 194.061,170.187 193.394,170.187 191.5,167.5 Z"/></g>
<g><path style="opacity:1" fill="#64746a" d="M 36.5,174.5 C 29.9095,174.52 23.9095,172.687 18.5,169C 22.0681,170.097 25.7347,171.264 29.5,172.5C 29.8333,172.333 30.1667,172.167 30.5,172C 29.1667,171 27.8333,170 26.5,169C 26.8333,168.833 27.1667,168.667 27.5,168.5C 30.7376,170.275 33.7376,172.275 36.5,174.5 Z"/></g>
<g><path style="opacity:1" fill="#434d47" d="M 61.5,152.5 C 61.8333,152.5 62.1667,152.5 62.5,152.5C 62.0291,156.356 61.3624,160.189 60.5,164C 60.8333,164.833 61.1667,165.667 61.5,166.5C 63.78,167.136 65.78,168.136 67.5,169.5C 66.448,169.351 65.448,169.517 64.5,170C 65.8333,170.667 67.1667,171.333 68.5,172C 65.639,172.085 62.9724,171.251 60.5,169.5C 58.8287,171.51 58.162,173.843 58.5,176.5C 57.3369,173.994 57.3369,171.327 58.5,168.5C 58.263,165.937 57.763,165.937 57,168.5C 56.51,167.207 56.3433,165.873 56.5,164.5C 57.397,165.598 58.2303,165.598 59,164.5C 59.7054,160.335 60.5387,156.335 61.5,152.5 Z"/></g>
<g><path style="opacity:1" fill="#121212" d="M 339.5,137.5 C 339.833,139.5 340.167,141.5 340.5,143.5C 340.649,144.552 340.483,145.552 340,146.5C 338.732,141.363 337.066,136.363 335,131.5C 335.586,141.084 338.086,150.084 342.5,158.5C 345.342,171.077 351.009,182.077 359.5,191.5C 359.5,192.167 359.5,192.833 359.5,193.5C 357.164,191.996 355.331,189.996 354,187.5C 353.667,187.833 353.333,188.167 353,188.5C 352.333,187.167 351.667,185.833 351,184.5C 353.269,199.34 356.102,214.007 359.5,228.5C 359.5,230.5 359.5,232.5 359.5,234.5C 354.916,215.026 350.75,195.359 347,175.5C 347.839,188.121 348.173,200.788 348,213.5C 346.479,199.204 345.479,184.871 345,170.5C 340.065,159.529 336.232,148.196 333.5,136.5C 326.825,136.666 320.158,136.5 313.5,136C 308.657,134.136 303.657,132.803 298.5,132C 297.304,131.346 297.304,130.846 298.5,130.5C 299.768,131.428 301.101,131.595 302.5,131C 299.929,129.546 297.262,128.38 294.5,127.5C 293.537,126.637 293.537,125.97 294.5,125.5C 299.5,128 304.5,130.5 309.5,133C 312.726,134.199 316.059,134.699 319.5,134.5C 319.469,131.041 318.802,127.708 317.5,124.5C 311.457,122.979 306.123,120.145 301.5,116C 306.19,118.33 311.19,120.164 316.5,121.5C 316.509,119.692 316.009,118.025 315,116.5C 312.387,114.599 310.72,112.265 310,109.5C 311,110.5 312,111.5 313,112.5C 313.167,112.167 313.333,111.833 313.5,111.5C 312.071,109.669 311.571,107.669 312,105.5C 314.443,110.72 316.61,116.053 318.5,121.5C 322.459,122.66 326.459,122.827 330.5,122C 331.022,121.439 331.355,120.772 331.5,120C 323.664,96.1554 312.331,74.3221 297.5,54.5C 292.401,46.6214 287.067,38.9548 281.5,31.5C 272.99,18.5084 261.323,9.34168 246.5,4C 260.889,7.35574 272.389,15.1891 281,27.5C 291.057,41.2247 300.724,55.2247 310,69.5C 322.559,91.4655 332.393,114.132 339.5,137.5 Z"/></g>
<g><path style="opacity:1" fill="#2c2c2c" d="M 319.5,123.5 C 323.667,124.803 327.834,124.803 332,123.5C 334.071,125.455 334.738,127.788 334,130.5C 324.288,137.689 319.455,135.356 319.5,123.5 Z"/></g>
<g><path style="opacity:1" fill="#412e21" d="M 169.5,181.5 C 169.189,182.478 168.522,183.145 167.5,183.5C 164.897,178.393 162.064,178.393 159,183.5C 158.28,181.888 158.446,180.388 159.5,179C 156.436,177.141 153.436,175.308 150.5,173.5C 150.389,172.883 150.056,172.383 149.5,172C 152.244,172.019 154.911,172.686 157.5,174C 165.879,176.307 172.046,173.807 176,166.5C 175.373,171.486 172.707,175.153 168,177.5C 167.156,179.463 167.656,180.796 169.5,181.5 Z"/></g>
<g><path style="opacity:1" fill="#f8c8b1" d="M 190.5,173.5 C 192.562,174.776 194.896,175.61 197.5,176C 198.304,177.771 199.471,179.271 201,180.5C 202.396,178.473 204.062,178.14 206,179.5C 206.26,181.618 207.26,183.284 209,184.5C 209.667,188.5 209.667,192.5 209,196.5C 207.989,197.337 206.822,197.67 205.5,197.5C 205.833,200.5 204.5,201.833 201.5,201.5C 201.643,203.262 201.309,204.929 200.5,206.5C 197.837,207.192 195.337,208.192 193,209.5C 191.535,208.67 190.035,208.504 188.5,209C 187.167,210.667 185.833,212.333 184.5,214C 180.96,216.184 177.293,218.184 173.5,220C 167.043,221.637 162.543,219.47 160,213.5C 159.283,214.044 158.783,214.711 158.5,215.5C 156.194,211.915 154.861,207.915 154.5,203.5C 158.999,209.622 164.665,210.955 171.5,207.5C 181.033,209.907 186.033,206.241 186.5,196.5C 186.217,192.804 185.717,189.137 185,185.5C 182.636,182.31 180.136,179.31 177.5,176.5C 179.322,173.962 181.322,173.962 183.5,176.5C 183.833,176.167 184.167,175.833 184.5,175.5C 180.85,173.652 180.85,172.319 184.5,171.5C 186.693,171.719 188.693,172.385 190.5,173.5 Z"/></g>
<g><path style="opacity:1" fill="#56635b" d="M 36.5,174.5 C 41.2888,174.624 45.9555,175.458 50.5,177C 48.6226,177.576 46.7892,177.409 45,176.5C 43.2382,176.944 43.4049,177.444 45.5,178C 42.0767,177.956 39.0767,176.79 36.5,174.5 Z"/></g>
<g><path style="opacity:1" fill="#1d1b19" d="M 249.5,185.5 C 248.736,187.74 247.902,190.073 247,192.5C 246.346,193.696 245.846,193.696 245.5,192.5C 246.485,190.902 246.651,189.235 246,187.5C 244.473,189.221 243.473,191.221 243,193.5C 242.729,189.699 243.896,186.366 246.5,183.5C 247.165,181.631 247.831,179.631 248.5,177.5C 249.48,180.086 249.813,182.753 249.5,185.5 Z"/></g>
<g><path style="opacity:1" fill="#f4b69a" d="M 150.5,173.5 C 153.436,175.308 156.436,177.141 159.5,179C 158.446,180.388 158.28,181.888 159,183.5C 162.064,178.393 164.897,178.393 167.5,183.5C 168.522,183.145 169.189,182.478 169.5,181.5C 169.085,179.052 170.085,177.719 172.5,177.5C 174.272,178.36 175.605,179.693 176.5,181.5C 177.452,179.955 177.785,178.288 177.5,176.5C 180.136,179.31 182.636,182.31 185,185.5C 185.717,189.137 186.217,192.804 186.5,196.5C 186.033,206.241 181.033,209.907 171.5,207.5C 164.665,210.955 158.999,209.622 154.5,203.5C 154.167,203.5 153.833,203.5 153.5,203.5C 150.726,193.188 148.06,182.855 145.5,172.5C 145.735,171.903 146.235,171.57 147,171.5C 148.077,172.429 149.244,173.096 150.5,173.5 Z"/></g>
<g><path style="opacity:1" fill="#2a2a2a" d="M 359.5,193.5 C 359.5,205.167 359.5,216.833 359.5,228.5C 356.102,214.007 353.269,199.34 351,184.5C 351.667,185.833 352.333,187.167 353,188.5C 353.333,188.167 353.667,187.833 354,187.5C 355.331,189.996 357.164,191.996 359.5,193.5 Z"/></g>
<g><path style="opacity:1" fill="#1d1b19" d="M 153.5,147.5 C 153.888,148.976 153.888,150.309 153.5,151.5C 150.204,155.298 146.704,158.964 143,162.5C 142.421,163.928 142.588,165.262 143.5,166.5C 143.433,167.959 143.766,169.292 144.5,170.5C 144.328,171.492 144.662,172.158 145.5,172.5C 148.06,182.855 150.726,193.188 153.5,203.5C 153.631,204.239 153.464,204.906 153,205.5C 152,202.167 151,198.833 150,195.5C 149.237,192.937 148.737,192.937 148.5,195.5C 151.286,202.673 153.119,210.006 154,217.5C 150.233,206.401 147.067,195.401 144.5,184.5C 145.762,187.115 146.928,189.782 148,192.5C 147.517,187.034 146.184,181.7 144,176.5C 140.901,172.071 138.234,167.404 136,162.5C 135.115,159.462 135.615,156.795 137.5,154.5C 138.777,156.95 140.277,159.283 142,161.5C 143.173,157.663 145.173,154.329 148,151.5C 149.451,149.536 151.284,148.203 153.5,147.5 Z"/></g>
<g><path style="opacity:1" fill="#5e574f" d="M 233.5,190.5 C 234.525,190.897 234.692,191.563 234,192.5C 232.887,194.329 231.387,195.163 229.5,195C 231.041,193.629 232.375,192.129 233.5,190.5 Z"/></g>
<g><path style="opacity:1" fill="#2c2c2c" d="M 164.5,375.5 C 158.833,375.5 153.167,375.5 147.5,375.5C 137.226,365.856 126.893,356.856 116.5,348.5C 114.251,344.402 111.751,340.402 109,336.5C 107.204,332.317 105.871,327.984 105,323.5C 102.89,306.511 101.223,289.511 100,272.5C 105.273,290.528 108.606,308.861 110,327.5C 108.665,323.489 107.331,319.489 106,315.5C 107.052,323.991 109.719,331.991 114,339.5C 108.997,301.147 100.663,263.481 89,226.5C 88.6667,227.167 88.3333,227.833 88,228.5C 87.7216,227.584 87.2216,226.918 86.5,226.5C 85.2383,221.717 83.5717,217.05 81.5,212.5C 81.9767,211.522 82.6433,210.689 83.5,210C 82.2624,210.077 81.2624,209.911 80.5,209.5C 82.4829,208.018 84.3163,206.351 86,204.5C 88.0156,200.469 90.0156,196.469 92,192.5C 102.95,222.715 112.95,254.049 122,286.5C 124,291.167 126,295.833 128,300.5C 127.667,297.833 127.333,295.167 127,292.5C 133.347,304.856 139.347,317.189 145,329.5C 143,326.833 141,324.167 139,321.5C 143.974,331.182 150.641,339.849 159,347.5C 159.878,357.058 161.712,366.391 164.5,375.5 Z"/></g>
<g><path style="opacity:1" fill="#130d0a" d="M 264.5,205.5 C 265.791,205.263 266.791,205.596 267.5,206.5C 265.965,207.788 264.299,207.788 262.5,206.5C 262.957,205.702 263.624,205.369 264.5,205.5 Z"/></g>
<g><path style="opacity:1" fill="#ee9b7f" d="M 264.5,205.5 C 263.624,205.369 262.957,205.702 262.5,206.5C 264.299,207.788 265.965,207.788 267.5,206.5C 268.043,206.56 268.376,206.893 268.5,207.5C 266.955,208.452 265.288,208.785 263.5,208.5C 262.52,216.669 258.186,222.503 250.5,226C 245.632,227.04 240.799,228.207 236,229.5C 232.379,228.887 228.879,227.887 225.5,226.5C 226.127,225.583 226.461,224.583 226.5,223.5C 228.865,220.005 228.198,219.672 224.5,222.5C 223.833,222.5 223.167,222.5 222.5,222.5C 225.182,214.99 229.515,208.49 235.5,203C 239.879,203.229 243.546,201.896 246.5,199C 254.735,195.423 260.735,197.589 264.5,205.5 Z"/></g>
<g><path style="opacity:1" fill="#1d1411" d="M 253.5,205.5 C 254.873,205.343 256.207,205.51 257.5,206C 254.719,207.939 252.053,210.106 249.5,212.5C 249.167,212.167 248.833,211.833 248.5,211.5C 250.641,209.878 252.308,207.878 253.5,205.5 Z"/></g>
<g><path style="opacity:1" fill="#3a251f" d="M 234.5,214.5 C 235.239,214.369 235.906,214.536 236.5,215C 234.599,217.613 232.265,219.28 229.5,220C 231.373,218.296 233.04,216.463 234.5,214.5 Z"/></g>
<g><path style="opacity:1" fill="#5f6e65" d="M 69.5,217.5 C 69.0679,218.71 68.4013,219.71 67.5,220.5C 66.5514,219.848 65.3847,219.514 64,219.5C 45.3466,222.659 26.6799,222.993 8,220.5C 6.98945,220.892 6.48945,221.559 6.5,222.5C 4.68415,221.185 3.01748,219.685 1.5,218C 10.4644,219.944 19.6311,220.778 29,220.5C 42.5615,220.271 56.0615,219.271 69.5,217.5 Z"/></g>
<g><path style="opacity:1" fill="#131414" d="M 92.5,177.5 C 93.6879,178.684 94.8545,178.684 96,177.5C 96.2592,179.991 96.0925,182.491 95.5,185C 96.9966,193.493 98.4966,201.993 100,210.5C 107.526,230.415 113.86,250.748 119,271.5C 126.788,289.077 135.122,306.41 144,323.5C 146.934,329.033 150.6,334.033 155,338.5C 154.377,340.985 155.377,342.985 158,344.5C 156.149,324.068 153.316,303.734 149.5,283.5C 152.012,291.21 153.846,299.21 155,307.5C 156.813,320.481 158.479,333.481 160,346.5C 161.022,347.354 161.855,348.354 162.5,349.5C 161.559,349.489 160.892,349.989 160.5,351C 161.848,359.24 163.515,367.407 165.5,375.5C 165.167,375.5 164.833,375.5 164.5,375.5C 161.712,366.391 159.878,357.058 159,347.5C 150.641,339.849 143.974,331.182 139,321.5C 141,324.167 143,326.833 145,329.5C 139.347,317.189 133.347,304.856 127,292.5C 127.333,295.167 127.667,297.833 128,300.5C 126,295.833 124,291.167 122,286.5C 112.95,254.049 102.95,222.715 92,192.5C 90.0156,196.469 88.0156,200.469 86,204.5C 84.3163,206.351 82.4829,208.018 80.5,209.5C 81.2624,209.911 82.2624,210.077 83.5,210C 82.6433,210.689 81.9767,211.522 81.5,212.5C 83.5717,217.05 85.2383,221.717 86.5,226.5C 83.3054,220.774 80.6387,214.774 78.5,208.5C 81.4999,206.332 83.9999,203.666 86,200.5C 87.7216,192.601 89.8883,184.934 92.5,177.5 Z"/></g>
<g><path style="opacity:1" fill="#83120d" d="M 222.5,222.5 C 223.167,222.5 223.833,222.5 224.5,222.5C 223.365,224.213 221.698,224.88 219.5,224.5C 220.29,223.599 221.29,222.932 222.5,222.5 Z"/></g>
<g><path style="opacity:1" fill="#413731" d="M 226.5,223.5 C 224.918,224.876 223.085,225.876 221,226.5C 219.97,226.164 219.47,225.497 219.5,224.5C 221.698,224.88 223.365,224.213 224.5,222.5C 228.198,219.672 228.865,220.005 226.5,223.5 Z"/></g>
<g><path style="opacity:1" fill="#1a1a1a" d="M 344.5,375.5 C 342.833,375.5 341.167,375.5 339.5,375.5C 340.834,349.507 340.667,323.507 339,297.5C 337.471,287.076 335.805,276.742 334,266.5C 335.466,270.029 336.466,273.695 337,277.5C 336.898,262.35 335.232,247.35 332,232.5C 326.491,211.462 321.157,190.462 316,169.5C 323.745,194.144 330.412,219.144 336,244.5C 337.83,260.124 339.163,275.791 340,291.5C 342.106,305.304 343.94,319.137 345.5,333C 344.125,346.824 343.291,360.657 343,374.5C 346.678,370.53 347.178,370.863 344.5,375.5 Z"/></g>
<g><path style="opacity:1" fill="#2b2b2b" d="M 78.5,208.5 C 80.6387,214.774 83.3054,220.774 86.5,226.5C 87.176,230.187 88.676,233.52 91,236.5C 92.9822,243.762 94.6488,251.095 96,258.5C 98.7686,281.162 101.435,303.828 104,326.5C 105.876,335.265 110.042,342.598 116.5,348.5C 118.893,352.402 121.893,355.902 125.5,359C 132.356,364.364 139.023,369.864 145.5,375.5C 133.833,375.5 122.167,375.5 110.5,375.5C 103.19,364.539 98.3562,352.539 96,339.5C 94.3139,309.638 90.9806,279.972 86,250.5C 84.8649,246.095 83.5315,241.762 82,237.5C 84.6412,249.644 86.6412,261.977 88,274.5C 88.6667,277.167 88.6667,279.833 88,282.5C 84.9395,275.379 81.6062,268.379 78,261.5C 81.1902,271.036 85.1902,280.369 90,289.5C 91.463,307.186 93.1297,324.853 95,342.5C 96.0109,346.877 97.1775,351.21 98.5,355.5C 95.7565,362.066 93.4232,368.732 91.5,375.5C 85.5,375.5 79.5,375.5 73.5,375.5C 77.3128,364.531 81.1461,353.531 85,342.5C 86.9528,327.839 86.9528,313.172 85,298.5C 76.1087,278.719 67.7754,258.719 60,238.5C 63.0528,251.648 67.7195,264.315 74,276.5C 74.6667,286.833 74.6667,297.167 74,307.5C 71.7791,318.94 69.4458,330.273 67,341.5C 73.7872,322.777 77.1206,303.444 77,283.5C 79.5294,289.421 81.8628,295.421 84,301.5C 84.8907,315.874 84.5574,330.208 83,344.5C 79.3493,355.121 75.1826,365.455 70.5,375.5C 58.1667,375.5 45.8333,375.5 33.5,375.5C 40.3048,360.552 47.1382,345.552 54,330.5C 55.8029,324.758 57.8029,319.091 60,313.5C 60.0556,322.561 58.5556,331.394 55.5,340C 55.6667,340.5 55.8333,341 56,341.5C 58.5926,336.465 60.2592,331.132 61,325.5C 62.7523,309.874 63.4189,294.208 63,278.5C 61.9449,269.613 59.9449,260.946 57,252.5C 56.51,253.793 56.3433,255.127 56.5,256.5C 55.6575,253.674 54.9908,250.674 54.5,247.5C 54.2528,246.287 53.5862,245.62 52.5,245.5C 53.2523,241.905 54.5856,238.572 56.5,235.5C 56.5751,232.794 56.9084,230.127 57.5,227.5C 61.8441,226.657 65.1774,224.324 67.5,220.5C 68.4013,219.71 69.0679,218.71 69.5,217.5C 71.604,217.799 73.604,217.466 75.5,216.5C 77.0224,214.844 76.689,213.677 74.5,213C 76.286,211.804 77.6193,210.304 78.5,208.5 Z"/></g>
<g><path style="opacity:1" fill="#10100f" d="M 293.5,133.5 C 295.138,143.857 296.971,154.191 299,164.5C 307.394,186.347 315.394,208.347 323,230.5C 325.525,237.645 326.525,244.978 326,252.5C 324.936,242.512 322.603,232.845 319,223.5C 321.562,233.317 323.229,243.317 324,253.5C 317.679,224.547 309.346,196.213 299,168.5C 297.619,182.308 294.786,195.808 290.5,209C 283.659,220.232 276.826,231.399 270,242.5C 269.383,243.449 269.549,244.282 270.5,245C 268.112,247.05 266.112,249.384 264.5,252C 274.811,270.105 280.144,289.605 280.5,310.5C 279.696,325.901 278.196,341.235 276,356.5C 274.712,363.199 272.545,369.532 269.5,375.5C 269.167,375.5 268.833,375.5 268.5,375.5C 270.85,360.603 272.35,345.603 273,330.5C 273.266,341.176 273.266,351.842 273,362.5C 276.85,340.999 278.517,319.333 278,297.5C 277.512,292.393 276.512,287.393 275,282.5C 274.187,294.879 274.354,307.213 275.5,319.5C 273.604,320.466 271.604,320.799 269.5,320.5C 269.861,326.254 269.528,330.587 268.5,333.5C 270.496,321.442 266.996,311.442 258,303.5C 255.843,301.183 254.343,298.516 253.5,295.5C 258.103,300.605 262.936,305.605 268,310.5C 268.167,309.833 268.333,309.167 268.5,308.5C 260.917,295.671 253.584,282.671 246.5,269.5C 246.667,269.167 246.833,268.833 247,268.5C 253.748,280.332 260.748,291.999 268,303.5C 268.996,286.982 265.83,271.316 258.5,256.5C 256.174,255.61 253.841,255.443 251.5,256C 253,254.885 254.667,254.052 256.5,253.5C 257.689,251.539 257.355,251.206 255.5,252.5C 255.158,251.662 254.492,251.328 253.5,251.5C 256.694,250.483 259.861,249.15 263,247.5C 267.925,238.647 273.591,230.314 280,222.5C 282.73,216.707 285.73,211.04 289,205.5C 292.383,197.851 294.217,189.851 294.5,181.5C 295.479,178.375 295.813,175.042 295.5,171.5C 295.173,158.54 293.173,145.873 289.5,133.5C 289.721,130.721 289.388,128.054 288.5,125.5C 288.64,123.876 287.973,122.71 286.5,122C 288.479,121.316 290.146,121.816 291.5,123.5C 292.167,126.977 292.834,130.311 293.5,133.5 Z"/></g>
<g><path style="opacity:1" fill="#505c54" d="M 25.5,231.5 C 25.9169,230.876 26.5836,230.543 27.5,230.5C 34.8382,232.335 42.1715,234.168 49.5,236C 41.4282,235.152 33.4282,233.652 25.5,231.5 Z"/></g>
<g><path style="opacity:1" fill="#cdbda9" d="M 253.5,226.5 C 254.5,226.5 255.5,226.5 256.5,226.5C 256.152,230.345 253.985,232.345 250,232.5C 248.338,232.612 247.171,231.946 246.5,230.5C 248.765,228.873 251.099,227.539 253.5,226.5 Z"/></g>
<g><path style="opacity:1" fill="#040404" d="M 160.5,232.5 C 165.932,238.724 172.599,243.224 180.5,246C 204.67,250.752 229.003,252.585 253.5,251.5C 254.492,251.328 255.158,251.662 255.5,252.5C 253.586,253.185 251.586,253.685 249.5,254C 247.291,257.586 244.957,261.086 242.5,264.5C 244.748,269.642 246.914,274.642 249,279.5C 247.035,276.509 244.868,273.843 242.5,271.5C 241.852,269.914 241.352,268.247 241,266.5C 240.338,267.984 239.504,269.317 238.5,270.5C 235.5,272.833 232.833,275.5 230.5,278.5C 228.534,279.441 226.534,280.441 224.5,281.5C 220.191,280.622 215.858,279.788 211.5,279C 195.649,268.819 180.649,257.486 166.5,245C 165.517,244.409 164.85,244.743 164.5,246C 164.989,247.138 165.322,248.305 165.5,249.5C 165.631,250.239 165.464,250.906 165,251.5C 163.465,247.227 162.131,242.894 161,238.5C 159.513,237.845 158.347,236.845 157.5,235.5C 158.145,234.268 158.311,232.935 158,231.5C 158.671,232.252 159.504,232.586 160.5,232.5 Z"/></g>
<g><path style="opacity:1" fill="#161817" d="M 56.5,235.5 C 54.5856,238.572 53.2523,241.905 52.5,245.5C 52.741,248.794 51.9076,251.794 50,254.5C 44.9353,261.399 38.7686,267.066 31.5,271.5C 30.5481,273.045 30.2148,274.712 30.5,276.5C 30.5,277.5 30.5,278.5 30.5,279.5C 29.917,282.947 28.5837,285.947 26.5,288.5C 28.4505,283.946 28.7838,279.28 27.5,274.5C 20.883,280.406 14.7164,286.739 9,293.5C 7.3821,296.943 5.21544,299.943 2.5,302.5C 1.35901,300.579 1.19234,298.579 2,296.5C 16.3655,282.466 31.0322,268.8 46,255.5C 49.6014,249.662 51.9347,243.329 53,236.5C 54.0113,235.663 55.1779,235.33 56.5,235.5 Z"/></g>
<g><path style="opacity:1" fill="#171717" d="M 170.5,279.5 C 172.115,284.405 173.448,289.405 174.5,294.5C 174.631,295.239 174.464,295.906 174,296.5C 173.64,294.392 172.973,292.392 172,290.5C 171.667,291.5 171.333,292.5 171,293.5C 170.667,290.5 170.333,287.5 170,284.5C 169.346,283.304 168.846,283.304 168.5,284.5C 169.326,285.451 169.492,286.451 169,287.5C 157.392,256.678 149.058,225.011 144,192.5C 150.569,221.777 158.236,250.777 167,279.5C 168.145,280.684 169.312,280.684 170.5,279.5 Z"/></g>
<g><path style="opacity:1" fill="#f5d6c3" d="M 230.5,278.5 C 230.5,278.833 230.5,279.167 230.5,279.5C 227.961,282.19 224.961,284.357 221.5,286C 215.882,287.819 210.215,289.319 204.5,290.5C 193.973,290.101 184.306,287.101 175.5,281.5C 173.873,279.37 172.04,277.37 170,275.5C 169.825,266.474 168.325,257.808 165.5,249.5C 165.322,248.305 164.989,247.138 164.5,246C 164.85,244.743 165.517,244.409 166.5,245C 180.649,257.486 195.649,268.819 211.5,279C 215.858,279.788 220.191,280.622 224.5,281.5C 226.534,280.441 228.534,279.441 230.5,278.5 Z"/></g>
<g><path style="opacity:1" fill="#94ab9d" d="M 52.5,245.5 C 53.5862,245.62 54.2528,246.287 54.5,247.5C 54.9908,250.674 55.6575,253.674 56.5,256.5C 64.1121,280.916 62.9454,304.916 53,328.5C 47.5459,341.409 41.5459,354.076 35,366.5C 33.5699,369.353 32.7366,372.353 32.5,375.5C 30.8333,375.5 29.1667,375.5 27.5,375.5C 31.2926,362.329 34.4593,348.995 37,335.5C 37.988,321.088 37.488,306.755 35.5,292.5C 34.4958,287.482 33.3292,282.482 32,277.5C 31.6174,276.944 31.1174,276.611 30.5,276.5C 30.2148,274.712 30.5481,273.045 31.5,271.5C 38.7686,267.066 44.9353,261.399 50,254.5C 51.9076,251.794 52.741,248.794 52.5,245.5 Z"/></g>
<g><path style="opacity:1" fill="#2b2b2b" d="M 253.5,295.5 C 248.23,288.29 244.563,280.29 242.5,271.5C 244.868,273.843 247.035,276.509 249,279.5C 246.914,274.642 244.748,269.642 242.5,264.5C 244.957,261.086 247.291,257.586 249.5,254C 251.586,253.685 253.586,253.185 255.5,252.5C 257.355,251.206 257.689,251.539 256.5,253.5C 254.667,254.052 253,254.885 251.5,256C 253.841,255.443 256.174,255.61 258.5,256.5C 265.83,271.316 268.996,286.982 268,303.5C 260.748,291.999 253.748,280.332 247,268.5C 246.833,268.833 246.667,269.167 246.5,269.5C 253.584,282.671 260.917,295.671 268.5,308.5C 268.333,309.167 268.167,309.833 268,310.5C 262.936,305.605 258.103,300.605 253.5,295.5 Z"/></g>
<g><path style="opacity:1" fill="#2a2a2a" d="M 261.5,252.5 C 264.027,254.51 265.861,257.177 267,260.5C 269,265.833 271,271.167 273,276.5C 273.667,290.167 273.667,303.833 273,317.5C 272,316.5 271,315.5 270,314.5C 271.631,293.852 268.131,274.186 259.5,255.5C 260.193,254.482 260.859,253.482 261.5,252.5 Z"/></g>
<g><path style="opacity:1" fill="#1b1b1b" d="M 149.5,283.5 C 143.759,260.779 136.092,238.613 126.5,217C 126.667,216.5 126.833,216 127,215.5C 127.667,216.833 128.333,218.167 129,219.5C 129.167,219 129.333,218.5 129.5,218C 123.147,200.733 117.98,183.233 114,165.5C 126.513,205.038 139.846,244.371 154,283.5C 154.667,284.833 154.667,286.167 154,287.5C 152.34,282.843 150.673,278.177 149,273.5C 149.046,276.8 149.212,280.134 149.5,283.5 Z"/></g>
<g><path style="opacity:1" fill="#5b6960" d="M 238.5,270.5 C 238.833,271.167 239.167,271.833 239.5,272.5C 236.233,274.427 233.233,276.761 230.5,279.5C 230.5,279.167 230.5,278.833 230.5,278.5C 232.833,275.5 235.5,272.833 238.5,270.5 Z"/></g>
<g><path style="opacity:1" fill="#95ac9e" d="M 242.5,271.5 C 244.563,280.29 248.23,288.29 253.5,295.5C 254.343,298.516 255.843,301.183 258,303.5C 266.996,311.442 270.496,321.442 268.5,333.5C 266.62,347.336 264.953,361.336 263.5,375.5C 253.167,375.5 242.833,375.5 232.5,375.5C 237.221,367.526 239.055,358.86 238,349.5C 235.854,346.874 234.521,343.874 234,340.5C 233.692,341.308 233.192,341.975 232.5,342.5C 231.352,340.851 230.019,339.351 228.5,338C 227.056,337.219 225.723,337.386 224.5,338.5C 227.054,342.94 229.054,347.606 230.5,352.5C 228.617,357.772 225.617,362.272 221.5,366C 217.5,366.667 213.5,366.667 209.5,366C 203.373,362.04 198.04,357.207 193.5,351.5C 190.013,341.207 186.013,331.207 181.5,321.5C 178.512,312.56 176.179,303.56 174.5,294.5C 173.448,289.405 172.115,284.405 170.5,279.5C 172.167,280.167 173.833,280.833 175.5,281.5C 177.827,284.092 180.661,286.092 184,287.5C 184.315,292.838 184.148,298.172 183.5,303.5C 182.371,305.628 182.204,307.961 183,310.5C 183.333,310.167 183.667,309.833 184,309.5C 184.333,310.833 184.667,312.167 185,313.5C 187.457,305.674 188.957,297.674 189.5,289.5C 193.714,291.238 198.048,292.572 202.5,293.5C 203.167,321.5 203.833,321.5 204.5,293.5C 204.833,293.5 205.167,293.5 205.5,293.5C 207.134,299.238 207.967,305.238 208,311.5C 208.751,305.116 208.584,298.783 207.5,292.5C 212.109,290.964 216.776,289.63 221.5,288.5C 223.164,289.949 223.998,291.949 224,294.5C 224.333,300.5 224.667,306.5 225,312.5C 225.705,304.139 225.538,295.806 224.5,287.5C 224.833,286.5 225.5,285.833 226.5,285.5C 227.33,294.324 227.83,303.324 228,312.5C 228.5,303.173 228.666,293.839 228.5,284.5C 230.091,282.367 232.091,280.701 234.5,279.5C 233.894,290.064 235.061,300.398 238,310.5C 236.458,299.931 235.625,289.264 235.5,278.5C 235.833,277.833 236.167,277.167 236.5,276.5C 237.957,281.319 238.957,286.319 239.5,291.5C 239.53,298.688 240.363,305.688 242,312.5C 241.9,305.495 241.4,298.495 240.5,291.5C 240.02,285.809 239.354,280.142 238.5,274.5C 238.833,273.833 239.167,273.167 239.5,272.5C 239.167,271.833 238.833,271.167 238.5,270.5C 239.504,269.317 240.338,267.984 241,266.5C 241.352,268.247 241.852,269.914 242.5,271.5 Z"/></g>
<g><path style="opacity:1" fill="#515d56" d="M 30.5,276.5 C 31.1174,276.611 31.6174,276.944 32,277.5C 33.3292,282.482 34.4958,287.482 35.5,292.5C 34.3433,295.026 34.3433,297.693 35.5,300.5C 34.5166,304.298 34.1832,308.298 34.5,312.5C 33.5489,313.919 33.2155,315.585 33.5,317.5C 32.1118,312.706 31.6118,307.706 32,302.5C 32.3333,304.5 32.6667,306.5 33,308.5C 33.0666,302.455 33.2333,296.455 33.5,290.5C 32.8636,286.608 31.8636,282.942 30.5,279.5C 30.5,278.5 30.5,277.5 30.5,276.5 Z"/></g>
<g><path style="opacity:1" fill="#4d5952" d="M 235.5,278.5 C 235.625,289.264 236.458,299.931 238,310.5C 235.061,300.398 233.894,290.064 234.5,279.5C 234.5,278.833 234.833,278.5 235.5,278.5 Z"/></g>
<g><path style="opacity:1" fill="#5a6860" d="M 238.5,274.5 C 239.354,280.142 240.02,285.809 240.5,291.5C 240.167,291.5 239.833,291.5 239.5,291.5C 238.957,286.319 237.957,281.319 236.5,276.5C 236.833,275.5 237.5,274.833 238.5,274.5 Z"/></g>
<g><path style="opacity:1" fill="#171816" d="M 239.5,272.5 C 239.167,273.167 238.833,273.833 238.5,274.5C 237.5,274.833 236.833,275.5 236.5,276.5C 236.167,277.167 235.833,277.833 235.5,278.5C 234.833,278.5 234.5,278.833 234.5,279.5C 232.091,280.701 230.091,282.367 228.5,284.5C 227.508,284.328 226.842,284.662 226.5,285.5C 225.5,285.833 224.833,286.5 224.5,287.5C 223.209,287.263 222.209,287.596 221.5,288.5C 216.776,289.63 212.109,290.964 207.5,292.5C 206.508,292.328 205.842,292.662 205.5,293.5C 205.167,293.5 204.833,293.5 204.5,293.5C 203.833,293.5 203.167,293.5 202.5,293.5C 198.048,292.572 193.714,291.238 189.5,289.5C 189.167,289.5 188.833,289.5 188.5,289.5C 187.85,289.196 187.183,288.863 186.5,288.5C 185.681,293.829 185.014,299.162 184.5,304.5C 183.833,304.5 183.5,304.167 183.5,303.5C 184.148,298.172 184.315,292.838 184,287.5C 180.661,286.092 177.827,284.092 175.5,281.5C 184.306,287.101 193.973,290.101 204.5,290.5C 210.215,289.319 215.882,287.819 221.5,286C 224.961,284.357 227.961,282.19 230.5,279.5C 233.233,276.761 236.233,274.427 239.5,272.5 Z"/></g>
<g><path style="opacity:1" fill="#95ab9d" d="M 188.5,289.5 C 187.656,295.551 186.49,301.551 185,307.5C 184.517,306.552 184.351,305.552 184.5,304.5C 185.014,299.162 185.681,293.829 186.5,288.5C 187.183,288.863 187.85,289.196 188.5,289.5 Z"/></g>
<g><path style="opacity:1" fill="#29302c" d="M 239.5,291.5 C 239.833,291.5 240.167,291.5 240.5,291.5C 241.4,298.495 241.9,305.495 242,312.5C 240.363,305.688 239.53,298.688 239.5,291.5 Z"/></g>
<g><path style="opacity:1" fill="#58665d" d="M 221.5,288.5 C 222.209,287.596 223.209,287.263 224.5,287.5C 225.538,295.806 225.705,304.139 225,312.5C 224.667,306.5 224.333,300.5 224,294.5C 223.998,291.949 223.164,289.949 221.5,288.5 Z"/></g>
<g><path style="opacity:1" fill="#444e48" d="M 226.5,285.5 C 226.842,284.662 227.508,284.328 228.5,284.5C 228.666,293.839 228.5,303.173 228,312.5C 227.83,303.324 227.33,294.324 226.5,285.5 Z"/></g>
<g><path style="opacity:1" fill="#637269" d="M 202.5,293.5 C 203.167,293.5 203.833,293.5 204.5,293.5C 203.833,321.5 203.167,321.5 202.5,293.5 Z"/></g>
<g><path style="opacity:1" fill="#48524c" d="M 205.5,293.5 C 205.842,292.662 206.508,292.328 207.5,292.5C 208.584,298.783 208.751,305.116 208,311.5C 207.967,305.238 207.134,299.238 205.5,293.5 Z"/></g>
<g><path style="opacity:1" fill="#1c201d" d="M 26.5,288.5 C 25.8717,291.09 24.705,293.423 23,295.5C 18.5,300 14,304.5 9.5,309C 7.63128,310.602 5.63128,311.602 3.5,312C 12.0668,304.934 19.7335,297.101 26.5,288.5 Z"/></g>
<g><path style="opacity:1" fill="#151515" d="M 303.5,375.5 C 303.167,375.5 302.833,375.5 302.5,375.5C 306.862,354.727 306.362,334.06 301,313.5C 300.317,334.279 298.484,354.945 295.5,375.5C 295.167,375.5 294.833,375.5 294.5,375.5C 297.603,351.928 298.77,328.261 298,304.5C 296.41,302.35 295.743,300.017 296,297.5C 296.667,298.833 297.333,300.167 298,301.5C 298.667,294.833 298.667,288.167 298,281.5C 294.989,264.826 290.989,248.493 286,232.5C 290.991,245.143 294.991,258.143 298,271.5C 299.398,284.131 300.398,296.798 301,309.5C 302.642,314.066 303.975,318.732 305,323.5C 307.451,340.967 306.951,358.301 303.5,375.5 Z"/></g>
<g><path style="opacity:1" fill="#171717" d="M 86.5,226.5 C 87.2216,226.918 87.7216,227.584 88,228.5C 88.3333,227.833 88.6667,227.167 89,226.5C 100.663,263.481 108.997,301.147 114,339.5C 109.719,331.991 107.052,323.991 106,315.5C 107.331,319.489 108.665,323.489 110,327.5C 108.606,308.861 105.273,290.528 100,272.5C 101.223,289.511 102.89,306.511 105,323.5C 105.871,327.984 107.204,332.317 109,336.5C 111.751,340.402 114.251,344.402 116.5,348.5C 110.042,342.598 105.876,335.265 104,326.5C 101.435,303.828 98.7686,281.162 96,258.5C 94.6488,251.095 92.9822,243.762 91,236.5C 88.676,233.52 87.176,230.187 86.5,226.5 Z"/></g>
<g><path style="opacity:1" fill="#4b5750" d="M 188.5,289.5 C 188.833,289.5 189.167,289.5 189.5,289.5C 188.957,297.674 187.457,305.674 185,313.5C 184.667,312.167 184.333,310.833 184,309.5C 183.667,309.833 183.333,310.167 183,310.5C 182.204,307.961 182.371,305.628 183.5,303.5C 183.5,304.167 183.833,304.5 184.5,304.5C 184.351,305.552 184.517,306.552 185,307.5C 186.49,301.551 187.656,295.551 188.5,289.5 Z"/></g>
<g><path style="opacity:1" fill="#2b2b2b" d="M 302.5,375.5 C 300.167,375.5 297.833,375.5 295.5,375.5C 298.484,354.945 300.317,334.279 301,313.5C 306.362,334.06 306.862,354.727 302.5,375.5 Z"/></g>
<g><path style="opacity:1" fill="#798b80" d="M 35.5,300.5 C 37.5793,319.099 36.246,337.433 31.5,355.5C 30.8333,354.5 30.1667,353.5 29.5,352.5C 29.5,351.833 29.1667,351.5 28.5,351.5C 29.5632,347.667 30.3965,347.667 31,351.5C 33.9774,338.669 35.1441,325.669 34.5,312.5C 34.1832,308.298 34.5166,304.298 35.5,300.5 Z"/></g>
<g><path style="opacity:1" fill="#282828" d="M 268.5,375.5 C 266.833,375.5 265.167,375.5 263.5,375.5C 264.953,361.336 266.62,347.336 268.5,333.5C 269.528,330.587 269.861,326.254 269.5,320.5C 271.604,320.799 273.604,320.466 275.5,319.5C 274.354,307.213 274.187,294.879 275,282.5C 276.512,287.393 277.512,292.393 278,297.5C 278.517,319.333 276.85,340.999 273,362.5C 273.266,351.842 273.266,341.176 273,330.5C 272.35,345.603 270.85,360.603 268.5,375.5 Z"/></g>
<g><path style="opacity:1" fill="#141614" d="M 34.5,312.5 C 35.1441,325.669 33.9774,338.669 31,351.5C 30.3965,347.667 29.5632,347.667 28.5,351.5C 24.1542,359.527 19.8209,367.527 15.5,375.5C 14.1667,375.5 12.8333,375.5 11.5,375.5C 15.5034,369.988 19.3367,364.321 23,358.5C 30.7296,345.915 34.2296,332.248 33.5,317.5C 33.2155,315.585 33.5489,313.919 34.5,312.5 Z"/></g>
<g><path style="opacity:1" fill="#121513" d="M 35.5,292.5 C 37.488,306.755 37.988,321.088 37,335.5C 34.4593,348.995 31.2926,362.329 27.5,375.5C 26.8333,375.5 26.1667,375.5 25.5,375.5C 27.4967,368.85 29.4967,362.183 31.5,355.5C 36.246,337.433 37.5793,319.099 35.5,300.5C 34.3433,297.693 34.3433,295.026 35.5,292.5 Z"/></g>
<g><path style="opacity:1" fill="#74867b" d="M 181.5,321.5 C 186.013,331.207 190.013,341.207 193.5,351.5C 192.279,350.972 191.113,350.305 190,349.5C 186.28,340.404 183.446,331.071 181.5,321.5 Z"/></g>
<g><path style="opacity:1" fill="#0f100f" d="M 33.5,375.5 C 33.1667,375.5 32.8333,375.5 32.5,375.5C 32.7366,372.353 33.5699,369.353 35,366.5C 41.5459,354.076 47.5459,341.409 53,328.5C 62.9454,304.916 64.1121,280.916 56.5,256.5C 56.3433,255.127 56.51,253.793 57,252.5C 59.9449,260.946 61.9449,269.613 63,278.5C 63.4189,294.208 62.7523,309.874 61,325.5C 60.2592,331.132 58.5926,336.465 56,341.5C 55.8333,341 55.6667,340.5 55.5,340C 58.5556,331.394 60.0556,322.561 60,313.5C 57.8029,319.091 55.8029,324.758 54,330.5C 47.1382,345.552 40.3048,360.552 33.5,375.5 Z"/></g>
<g><path style="opacity:1" fill="#141414" d="M 73.5,375.5 C 72.5,375.5 71.5,375.5 70.5,375.5C 75.1826,365.455 79.3493,355.121 83,344.5C 84.5574,330.208 84.8907,315.874 84,301.5C 81.8628,295.421 79.5294,289.421 77,283.5C 77.1206,303.444 73.7872,322.777 67,341.5C 69.4458,330.273 71.7791,318.94 74,307.5C 74.6667,297.167 74.6667,286.833 74,276.5C 67.7195,264.315 63.0528,251.648 60,238.5C 67.7754,258.719 76.1087,278.719 85,298.5C 86.9528,313.172 86.9528,327.839 85,342.5C 81.1461,353.531 77.3128,364.531 73.5,375.5 Z"/></g>
<g><path style="opacity:1" fill="#0a0a0a" d="M 116.5,348.5 C 126.893,356.856 137.226,365.856 147.5,375.5C 146.833,375.5 146.167,375.5 145.5,375.5C 139.023,369.864 132.356,364.364 125.5,359C 121.893,355.902 118.893,352.402 116.5,348.5 Z"/></g>
<g><path style="opacity:1" fill="#121212" d="M 110.5,375.5 C 109.833,375.5 109.167,375.5 108.5,375.5C 106.23,370.725 103.73,366.058 101,361.5C 99.0527,363.063 97.886,365.063 97.5,367.5C 96.5122,370.076 95.5122,372.743 94.5,375.5C 93.5,375.5 92.5,375.5 91.5,375.5C 93.4232,368.732 95.7565,362.066 98.5,355.5C 97.1775,351.21 96.0109,346.877 95,342.5C 93.1297,324.853 91.463,307.186 90,289.5C 85.1902,280.369 81.1902,271.036 78,261.5C 81.6062,268.379 84.9395,275.379 88,282.5C 88.6667,279.833 88.6667,277.167 88,274.5C 86.6412,261.977 84.6412,249.644 82,237.5C 83.5315,241.762 84.8649,246.095 86,250.5C 90.9806,279.972 94.3139,309.638 96,339.5C 98.3562,352.539 103.19,364.539 110.5,375.5 Z"/></g>
<g><path style="opacity:1" fill="#2c2c2c" d="M 108.5,375.5 C 106.167,375.5 103.833,375.5 101.5,375.5C 100.345,372.672 99.0114,370.005 97.5,367.5C 97.886,365.063 99.0527,363.063 101,361.5C 103.73,366.058 106.23,370.725 108.5,375.5 Z"/></g>
<g><path style="opacity:1" fill="#3b443f" d="M 29.5,352.5 C 30.1667,353.5 30.8333,354.5 31.5,355.5C 29.4967,362.183 27.4967,368.85 25.5,375.5C 24.8333,375.5 24.1667,375.5 23.5,375.5C 25.6559,367.876 27.6559,360.21 29.5,352.5 Z"/></g>
<g><path style="opacity:1" fill="#93aa9c" d="M 28.5,351.5 C 29.1667,351.5 29.5,351.833 29.5,352.5C 27.6559,360.21 25.6559,367.876 23.5,375.5C 20.8333,375.5 18.1667,375.5 15.5,375.5C 19.8209,367.527 24.1542,359.527 28.5,351.5 Z"/></g>
<g><path style="opacity:1" fill="#8ea396" d="M 97.5,367.5 C 99.0114,370.005 100.345,372.672 101.5,375.5C 99.1667,375.5 96.8333,375.5 94.5,375.5C 95.5122,372.743 96.5122,370.076 97.5,367.5 Z"/></g>
</svg>
