<?xml version="1.0" encoding="UTF-8"?>
<!DOCTYPE svg PUBLIC "-//W3C//DTD SVG 1.1//EN" "http://www.w3.org/Graphics/SVG/1.1/DTD/svg11.dtd">
<svg xmlns="http://www.w3.org/2000/svg" version="1.1" width="30px" height="30px" style="shape-rendering:geometricPrecision; text-rendering:geometricPrecision; image-rendering:optimizeQuality; fill-rule:evenodd; clip-rule:evenodd" xmlns:xlink="http://www.w3.org/1999/xlink">
<g><path style="opacity:0.361" fill="#d5d4d4" d="M 8.5,0.5 C 8.5,0.166667 8.5,-0.166667 8.5,-0.5C 11.5,-0.5 14.5,-0.5 17.5,-0.5C 17.1667,0.166667 16.8333,0.833333 16.5,1.5C 15.8333,1.5 15.5,1.83333 15.5,2.5C 13.0971,2.44805 10.7638,2.78138 8.5,3.5C 9.62495,2.34775 9.62495,1.34775 8.5,0.5 Z"/></g>
<g><path style="opacity:0.789" fill="#e1e1e0" d="M 8.5,0.5 C 9.62495,1.34775 9.62495,2.34775 8.5,3.5C 7.26315,4.96492 6.26315,6.63159 5.5,8.5C 3.9081,9.60164 3.07476,8.93497 3,6.5C 2.72158,7.4158 2.22158,8.08247 1.5,8.5C 1.5,7.83333 1.5,7.16667 1.5,6.5C 3.23931,3.75731 5.57265,1.75731 8.5,0.5 Z"/></g>
<g><path style="opacity:1" fill="#a4a3a3" d="M 17.5,-0.5 C 18.5,-0.5 19.5,-0.5 20.5,-0.5C 22.8061,1.13942 24.8061,3.13942 26.5,5.5C 25.8333,5.5 25.5,5.83333 25.5,6.5C 24.2652,6.27858 23.2652,5.61191 22.5,4.5C 22.4325,5.7538 21.7658,7.08714 20.5,8.5C 19.8333,8.16667 19.1667,7.83333 18.5,7.5C 19.472,5.08025 18.8054,3.08025 16.5,1.5C 16.8333,0.833333 17.1667,0.166667 17.5,-0.5 Z"/></g>
<g><path style="opacity:1" fill="#323232" d="M 15.5,2.5 C 15.9382,2.43456 16.2716,2.60123 16.5,3C 15.5842,3.27842 14.9175,3.77842 14.5,4.5C 13.3121,5.6843 12.1455,5.6843 11,4.5C 10.2079,6.64369 8.70792,7.97702 6.5,8.5C 6.16667,8.5 5.83333,8.5 5.5,8.5C 6.26315,6.63159 7.26315,4.96492 8.5,3.5C 10.7638,2.78138 13.0971,2.44805 15.5,2.5 Z"/></g>
<g><path style="opacity:1" fill="#626161" d="M 15.5,2.5 C 15.5,1.83333 15.8333,1.5 16.5,1.5C 18.8054,3.08025 19.472,5.08025 18.5,7.5C 17.2022,6.88432 16.2022,6.88432 15.5,7.5C 14.8333,7.5 14.1667,7.5 13.5,7.5C 13.9528,6.54163 14.6195,5.7083 15.5,5C 15.2716,4.60123 14.9382,4.43456 14.5,4.5C 14.9175,3.77842 15.5842,3.27842 16.5,3C 16.2716,2.60123 15.9382,2.43456 15.5,2.5 Z"/></g>
<g><path style="opacity:1" fill="#b6b5b4" d="M 14.5,4.5 C 14.9382,4.43456 15.2716,4.60123 15.5,5C 14.6195,5.7083 13.9528,6.54163 13.5,7.5C 12.609,8.10978 11.609,8.44312 10.5,8.5C 9.16186,10.1128 7.4952,10.6128 5.5,10C 6.05596,9.61742 6.38929,9.11742 6.5,8.5C 8.70792,7.97702 10.2079,6.64369 11,4.5C 12.1455,5.6843 13.3121,5.6843 14.5,4.5 Z"/></g>
<g><path style="opacity:1" fill="#747473" d="M 25.5,6.5 C 25.0825,7.22158 24.4158,7.72158 23.5,8C 24.4438,10.7191 24.7771,13.5525 24.5,16.5C 24.6716,17.4916 24.3382,18.1583 23.5,18.5C 22.8333,18.5 22.1667,18.5 21.5,18.5C 22.5366,16.2625 22.7033,13.9291 22,11.5C 21.1482,12.5707 20.3149,13.5707 19.5,14.5C 19.8333,12.5 20.1667,10.5 20.5,8.5C 21.7658,7.08714 22.4325,5.7538 22.5,4.5C 23.2652,5.61191 24.2652,6.27858 25.5,6.5 Z"/></g>
<g><path style="opacity:1" fill="#848483" d="M 26.5,5.5 C 27.9063,5.97306 28.573,6.97306 28.5,8.5C 28.44,9.04309 28.1067,9.37642 27.5,9.5C 26.5713,8.31116 26.238,6.97782 26.5,5.5 Z"/></g>
<g><path style="opacity:1" fill="#91908f" d="M 5.5,8.5 C 5.83333,8.5 6.16667,8.5 6.5,8.5C 6.38929,9.11742 6.05596,9.61742 5.5,10C 7.4952,10.6128 9.16186,10.1128 10.5,8.5C 11.038,10.1172 11.3713,11.7839 11.5,13.5C 11.5569,14.609 11.8902,15.609 12.5,16.5C 11.4168,16.4606 10.4168,16.1272 9.5,15.5C 8.73485,16.6119 7.73485,17.2786 6.5,17.5C 7.74016,12.951 6.07349,11.2843 1.5,12.5C 1.5,11.1667 1.5,9.83333 1.5,8.5C 2.22158,8.08247 2.72158,7.4158 3,6.5C 3.07476,8.93497 3.9081,9.60164 5.5,8.5 Z"/></g>
<g><path style="opacity:1" fill="#9e9d9c" d="M 18.5,7.5 C 18.8016,10.0593 18.4682,12.3926 17.5,14.5C 17.1667,13.5 16.5,12.8333 15.5,12.5C 15.0472,11.5416 14.3805,10.7083 13.5,10C 15.935,9.92524 16.6016,9.0919 15.5,7.5C 16.2022,6.88432 17.2022,6.88432 18.5,7.5 Z"/></g>
<g><path style="opacity:1" fill="#363635" d="M 18.5,7.5 C 19.1667,7.83333 19.8333,8.16667 20.5,8.5C 20.1667,10.5 19.8333,12.5 19.5,14.5C 18.8902,15.391 18.5569,16.391 18.5,17.5C 16.8089,18.8637 15.1423,20.197 13.5,21.5C 11.3023,21.5912 10.9689,20.9245 12.5,19.5C 13.1667,18.8333 13.8333,18.1667 14.5,17.5C 15.7281,16.6935 16.7281,15.6935 17.5,14.5C 18.4682,12.3926 18.8016,10.0593 18.5,7.5 Z"/></g>
<g><path style="opacity:1" fill="#3f3f3e" d="M 13.5,7.5 C 14.1667,7.5 14.8333,7.5 15.5,7.5C 16.6016,9.0919 15.935,9.92524 13.5,10C 14.3805,10.7083 15.0472,11.5416 15.5,12.5C 14.2921,13.2341 12.9587,13.5674 11.5,13.5C 11.3713,11.7839 11.038,10.1172 10.5,8.5C 11.609,8.44312 12.609,8.10978 13.5,7.5 Z"/></g>
<g><path style="opacity:1" fill="#171717" d="M 26.5,5.5 C 26.238,6.97782 26.5713,8.31116 27.5,9.5C 28.1067,9.37642 28.44,9.04309 28.5,8.5C 28.8333,8.5 29.1667,8.5 29.5,8.5C 29.5,9.16667 29.5,9.83333 29.5,10.5C 28.8333,10.5 28.5,10.8333 28.5,11.5C 27.0256,12.4363 26.0256,13.7697 25.5,15.5C 25.5,16.1667 25.1667,16.5 24.5,16.5C 24.7771,13.5525 24.4438,10.7191 23.5,8C 24.4158,7.72158 25.0825,7.22158 25.5,6.5C 25.5,5.83333 25.8333,5.5 26.5,5.5 Z"/></g>
<g><path style="opacity:1" fill="#d5d4d3" d="M 6.5,17.5 C 6.83333,18.5 7.5,19.1667 8.5,19.5C 8.55688,20.609 8.89022,21.609 9.5,22.5C 7.4184,22.3757 5.9184,21.3757 5,19.5C 4.66667,20.1667 4.33333,20.8333 4,21.5C 3.14825,20.4293 2.31491,19.4293 1.5,18.5C 4.16667,16.5 4.16667,14.5 1.5,12.5C 6.07349,11.2843 7.74016,12.951 6.5,17.5 Z"/></g>
<g><path style="opacity:1" fill="#ebebea" d="M 1.5,6.5 C 1.5,7.16667 1.5,7.83333 1.5,8.5C 1.5,9.83333 1.5,11.1667 1.5,12.5C 4.16667,14.5 4.16667,16.5 1.5,18.5C 1.62867,20.2161 1.962,21.8828 2.5,23.5C 1.27187,22.6935 0.271873,21.6935 -0.5,20.5C -0.5,16.5 -0.5,12.5 -0.5,8.5C 0.166667,7.83333 0.833333,7.16667 1.5,6.5 Z"/></g>
<g><path style="opacity:1" fill="#e2e1e1" d="M 15.5,12.5 C 16.5,12.8333 17.1667,13.5 17.5,14.5C 16.7281,15.6935 15.7281,16.6935 14.5,17.5C 13.8333,17.1667 13.1667,16.8333 12.5,16.5C 11.8902,15.609 11.5569,14.609 11.5,13.5C 12.9587,13.5674 14.2921,13.2341 15.5,12.5 Z"/></g>
<g><path style="opacity:1" fill="#d0cfce" d="M 21.5,18.5 C 21.5,19.1667 21.1667,19.5 20.5,19.5C 20.5,18.1667 19.8333,17.5 18.5,17.5C 18.5569,16.391 18.8902,15.391 19.5,14.5C 20.3149,13.5707 21.1482,12.5707 22,11.5C 22.7033,13.9291 22.5366,16.2625 21.5,18.5 Z"/></g>
<g><path style="opacity:1" fill="#c1c0bf" d="M 12.5,16.5 C 13.1667,16.8333 13.8333,17.1667 14.5,17.5C 13.8333,18.1667 13.1667,18.8333 12.5,19.5C 10.965,18.6457 9.63163,18.6457 8.5,19.5C 7.5,19.1667 6.83333,18.5 6.5,17.5C 7.73485,17.2786 8.73485,16.6119 9.5,15.5C 10.4168,16.1272 11.4168,16.4606 12.5,16.5 Z"/></g>
<g><path style="opacity:0.488" fill="#e8e7e7" d="M 29.5,10.5 C 29.5,13.8333 29.5,17.1667 29.5,20.5C 28.7281,21.6935 27.7281,22.6935 26.5,23.5C 25.5084,23.6716 24.8417,23.3382 24.5,22.5C 27.0114,19.3025 28.3447,15.6358 28.5,11.5C 28.5,10.8333 28.8333,10.5 29.5,10.5 Z"/></g>
<g><path style="opacity:1" fill="#c5c4c3" d="M 1.5,18.5 C 2.31491,19.4293 3.14825,20.4293 4,21.5C 4.33333,20.8333 4.66667,20.1667 5,19.5C 5.9184,21.3757 7.4184,22.3757 9.5,22.5C 10.4778,22.811 11.1445,23.4777 11.5,24.5C 10.0499,25.8498 9.38321,27.5165 9.5,29.5C 9.16667,29.5 8.83333,29.5 8.5,29.5C 8.5,28.8333 8.16667,28.5 7.5,28.5C 8.21781,26.8632 8.38447,25.1966 8,23.5C 6.81181,24.5634 6.31181,25.8967 6.5,27.5C 4.83333,26.5 3.5,25.1667 2.5,23.5C 1.962,21.8828 1.62867,20.2161 1.5,18.5 Z"/></g>
<g><path style="opacity:1" fill="#7b7a79" d="M 18.5,17.5 C 19.8333,17.5 20.5,18.1667 20.5,19.5C 18.7772,21.2181 16.7772,22.5514 14.5,23.5C 12.3023,23.5912 11.9689,22.9245 13.5,21.5C 15.1423,20.197 16.8089,18.8637 18.5,17.5 Z"/></g>
<g><path style="opacity:1" fill="#1c1c1c" d="M 21.5,18.5 C 22.1667,18.5 22.8333,18.5 23.5,18.5C 21.4203,22.0865 18.7537,25.2532 15.5,28C 16.056,28.3826 16.3893,28.8826 16.5,29.5C 15.5,29.5 14.5,29.5 13.5,29.5C 13.5172,27.4352 13.8505,25.4352 14.5,23.5C 16.7772,22.5514 18.7772,21.2181 20.5,19.5C 21.1667,19.5 21.5,19.1667 21.5,18.5 Z"/></g>
<g><path style="opacity:1" fill="#cdcdcc" d="M 25.5,15.5 C 26.0431,15.56 26.3764,15.8933 26.5,16.5C 25.4412,18.5336 24.4412,20.5336 23.5,22.5C 21.1,24.2964 19.4333,26.6298 18.5,29.5C 17.8333,29.5 17.1667,29.5 16.5,29.5C 16.3893,28.8826 16.056,28.3826 15.5,28C 18.7537,25.2532 21.4203,22.0865 23.5,18.5C 24.3382,18.1583 24.6716,17.4916 24.5,16.5C 25.1667,16.5 25.5,16.1667 25.5,15.5 Z"/></g>
<g><path style="opacity:1" fill="#393939" d="M 28.5,11.5 C 28.3447,15.6358 27.0114,19.3025 24.5,22.5C 24.1667,22.5 23.8333,22.5 23.5,22.5C 24.4412,20.5336 25.4412,18.5336 26.5,16.5C 26.3764,15.8933 26.0431,15.56 25.5,15.5C 26.0256,13.7697 27.0256,12.4363 28.5,11.5 Z"/></g>
<g><path style="opacity:1" fill="#5a5a5a" d="M 12.5,19.5 C 10.9689,20.9245 11.3023,21.5912 13.5,21.5C 11.9689,22.9245 12.3023,23.5912 14.5,23.5C 13.8505,25.4352 13.5172,27.4352 13.5,29.5C 12.1667,29.5 10.8333,29.5 9.5,29.5C 9.38321,27.5165 10.0499,25.8498 11.5,24.5C 11.1445,23.4777 10.4778,22.811 9.5,22.5C 8.89022,21.609 8.55688,20.609 8.5,19.5C 9.63163,18.6457 10.965,18.6457 12.5,19.5 Z"/></g>
<g><path style="opacity:1" fill="#121212" d="M 7.5,28.5 C 6.83333,28.5 6.5,28.1667 6.5,27.5C 6.31181,25.8967 6.81181,24.5634 8,23.5C 8.38447,25.1966 8.21781,26.8632 7.5,28.5 Z"/></g>
<g><path style="opacity:1" fill="#6e6d6d" d="M 23.5,22.5 C 23.8333,22.5 24.1667,22.5 24.5,22.5C 24.8417,23.3382 25.5084,23.6716 26.5,23.5C 24.8061,25.8606 22.8061,27.8606 20.5,29.5C 19.8333,29.5 19.1667,29.5 18.5,29.5C 19.4333,26.6298 21.1,24.2964 23.5,22.5 Z"/></g>
</svg>
